<svg width="53" height="53" viewBox="0 0 53 53" fill="none" xmlns="http://www.w3.org/2000/svg">
<path d="M3.48684 0C2.59946 0 1.70969 0.266907 1.04605 0.848323C0.382417 1.42974 0 2.31434 0 3.23171V4.52439C0 5.44176 0.382415 6.30616 1.04605 6.88758C1.70969 7.46899 2.59947 7.7561 3.48684 7.7561H7.67105C8.55843 7.7561 9.4482 7.46899 10.1118 6.88758C10.6192 6.44308 10.9591 5.84324 11.0925 5.17073H12.4001L14.1435 8.40244H12.5526C10.8836 8.40244 9.59227 9.55366 9.19655 10.9878H5.57895C5.5354 10.9859 5.49174 10.9859 5.44819 10.9878C4.71781 11.0194 4.08432 11.6642 4.11855 12.3411C4.15279 13.018 4.84858 13.605 5.57895 13.5732H9.19655C9.59227 15.0121 10.8836 16.1585 12.5526 16.1585H14.1435C12.8316 18.2273 11.8553 20.5765 11.8553 23.2683V25.2073C11.8553 29.6619 13.621 35.3958 17.6521 41.3861C17.9708 41.8504 18.633 42.0855 19.2048 41.9373C19.7766 41.7891 20.2112 41.2697 20.2237 40.7195V37.4878C20.2237 34.6009 22.6878 32.3171 25.8026 32.3171H27.1974C30.3122 32.3171 32.7763 34.6009 32.7763 37.4878V40.7195C32.7888 41.2697 33.2234 41.7891 33.7952 41.9373C34.367 42.0855 35.0292 41.8504 35.3479 41.3861C39.379 35.3958 41.1447 29.6619 41.1447 25.2073V23.2683C41.1447 20.5765 40.1684 18.2273 38.8565 16.1585H40.4474C42.1164 16.1585 43.4077 15.0121 43.8035 13.5732H47.4211C48.1579 13.5828 48.8357 12.9635 48.8357 12.2805C48.8357 11.5975 48.1579 10.9781 47.4211 10.9878H43.8035C43.4077 9.55366 42.1164 8.40244 40.4474 8.40244H38.8565L40.5999 5.17073H41.9075C42.0409 5.84324 42.3808 6.44308 42.8882 6.88758C43.5518 7.46899 44.4416 7.7561 45.3289 7.7561H49.5132C50.4005 7.7561 51.2903 7.46899 51.9539 6.88758C52.6176 6.30616 53 5.44176 53 4.52439V3.23171C53 2.31434 52.6176 1.42974 51.9539 0.848323C51.2903 0.266907 50.4005 0 49.5132 0H45.3289C44.4416 0 43.5518 0.266907 42.8882 0.848323C42.3853 1.28886 42.0434 1.91434 41.9075 2.58537C41.1516 2.58533 40.3643 2.58537 39.6192 2.58537C39.1525 2.62753 38.7181 2.90382 38.5078 3.2923L35.7401 8.40244H34.5197C33.0054 5.72118 29.9829 3.87805 26.5 3.87805C23.0171 3.87805 19.9946 5.72118 18.4803 8.40244H17.2599L14.4922 3.2923C14.2605 2.8699 13.7613 2.58578 13.25 2.58537H11.0925C10.9566 1.91434 10.6147 1.28886 10.1118 0.848323C9.44821 0.266907 8.55843 0 7.67105 0H3.48684ZM3.48684 2.58537H7.67105C7.9427 2.58537 8.10142 2.6456 8.19408 2.72675C8.28674 2.80793 8.36842 2.92141 8.36842 3.23171V4.52439C8.36842 4.8347 8.28674 4.92797 8.19408 5.00915C8.10142 5.09033 7.9427 5.17073 7.67105 5.17073H3.48684C3.21519 5.17073 3.05647 5.09033 2.96382 5.00915C2.87116 4.92797 2.78947 4.8347 2.78947 4.52439V3.23171C2.78947 2.92141 2.87116 2.80793 2.96382 2.72675C3.05648 2.64557 3.21519 2.58537 3.48684 2.58537ZM45.3289 2.58537H49.5132C49.7848 2.58537 49.9435 2.6456 50.0362 2.72675C50.1288 2.80793 50.2105 2.92141 50.2105 3.23171V4.52439C50.2105 4.8347 50.1288 4.92797 50.0362 5.00915C49.9435 5.09033 49.7848 5.17073 49.5132 5.17073H45.3289C45.0573 5.17073 44.8986 5.09033 44.8059 5.00915C44.7133 4.92797 44.6316 4.8347 44.6316 4.52439V3.23171C44.6316 2.92141 44.7133 2.80793 44.8059 2.72675C44.8986 2.64557 45.0573 2.58537 45.3289 2.58537ZM26.5 6.46341C29.9828 6.46341 32.7763 9.05249 32.7763 12.2805C32.7763 15.5085 29.9828 18.0976 26.5 18.0976C23.0172 18.0976 20.2237 15.5085 20.2237 12.2805C20.2237 9.05249 23.0172 6.46341 26.5 6.46341ZM26.5 8.40244C24.2056 8.40244 22.3158 10.154 22.3158 12.2805C22.3158 14.407 24.2056 16.1585 26.5 16.1585C28.7944 16.1585 30.6842 14.407 30.6842 12.2805C30.6842 10.154 28.7944 8.40244 26.5 8.40244ZM12.5526 10.9878H17.565C17.494 11.4101 17.4342 11.8401 17.4342 12.2805C17.4342 12.7208 17.494 13.1509 17.565 13.5732H16.9112C16.8178 13.5575 16.7227 13.5507 16.6279 13.553C16.584 13.5578 16.5403 13.5645 16.4971 13.5732H12.5526C12.2491 13.5732 11.8553 13.2647 11.8553 12.6441V11.8967C11.8553 11.2761 12.2491 10.9878 12.5526 10.9878ZM26.5 10.9878C27.2868 10.9878 27.8947 11.5512 27.8947 12.2805C27.8947 13.0097 27.2868 13.5732 26.5 13.5732C25.7132 13.5732 25.1053 13.0097 25.1053 12.2805C25.1053 11.5512 25.7132 10.9878 26.5 10.9878ZM35.435 10.9878H40.4474C40.7509 10.9878 41.1447 11.2761 41.1447 11.8967V12.6441C41.1447 13.2647 40.7509 13.5732 40.4474 13.5732H35.435C35.506 13.1509 35.5658 12.7208 35.5658 12.2805C35.5658 11.8401 35.506 11.4101 35.435 10.9878ZM17.4778 16.1585H18.4803C19.9946 18.8398 23.0171 20.6829 26.5 20.6829C29.9829 20.6829 33.0054 18.8398 34.5197 16.1585H35.5222C37.1388 18.3281 38.3553 20.6461 38.3553 23.2683V25.2073C38.3553 28.1255 37.4187 31.9646 35.2825 36.1345C34.57 32.5237 31.2949 29.7317 27.1974 29.7317H25.8026C21.7051 29.7317 18.43 32.5237 17.7175 36.1345C15.5813 31.9646 14.6447 28.1255 14.6447 25.2073V23.2683C14.6447 20.6461 15.8612 18.3281 17.4778 16.1585ZM31.2508 21.3293C30.5204 21.3609 29.8869 22.0056 29.9212 22.6826C29.9554 23.3595 30.6512 23.9465 31.3816 23.9146H34.8684C35.6053 23.9243 36.283 23.305 36.283 22.622C36.283 21.9389 35.6053 21.3196 34.8684 21.3293C33.669 21.3293 32.4395 21.3293 31.2508 21.3293V21.3293ZM26.5 34.2561C24.2061 34.2561 22.3158 36.0081 22.3158 38.1341V49.1219C22.3158 51.248 24.2061 53 26.5 53C28.7939 53 30.6842 51.248 30.6842 49.1219V38.1341C30.6842 36.0081 28.7939 34.2561 26.5 34.2561ZM26.5 36.8415C27.2968 36.8415 27.8947 37.3956 27.8947 38.1341V49.1219C27.8947 49.8605 27.2968 50.4146 26.5 50.4146C25.7032 50.4146 25.1053 49.8605 25.1053 49.1219V38.1341C25.1053 37.3956 25.7032 36.8415 26.5 36.8415Z" fill="black"/>
</svg>
