<svg width="53" height="53" viewBox="0 0 53 53" fill="none" xmlns="http://www.w3.org/2000/svg">
<path d="M51.5578 17.2836C48.0424 15.6774 47.4483 14.9678 46.7129 13.7914C45.7791 11.549 43.121 10.0855 40.0815 10.139C36.0158 10.2127 33.461 12.5533 31.5492 15.1517C30.4031 12.7478 27.975 11.0152 24.1766 9.88034C19.2925 8.42096 16.3469 6.20961 14.7358 4.61147C12.9944 2.88413 12.3934 1.48102 12.3887 1.46966C12.2729 1.18806 11.9958 1.00259 11.6864 1C11.6843 1 11.6821 1 11.68 1C11.3733 1 11.0959 1.18029 10.9762 1.45811C10.9355 1.55274 9.9696 3.81349 9.29969 6.99593C9.21419 7.40184 9.48002 7.79889 9.89333 7.88286C10.3072 7.96643 10.711 7.70566 10.7964 7.29984C11.1172 5.77601 11.5145 4.46066 11.8314 3.52661C13.2375 5.56364 16.613 9.18915 23.7319 11.3162C25.256 11.7715 27.1177 12.4631 28.5453 13.7023C28.5336 13.6965 28.5214 13.6911 28.5098 13.6854C28.3952 13.6288 28.2796 13.5732 28.1621 13.5195C28.1532 13.5154 28.1439 13.5116 28.135 13.5075C28.0258 13.458 27.9149 13.41 27.803 13.3631C27.7661 13.3476 27.7288 13.3324 27.6916 13.3173C27.6018 13.2806 27.5111 13.2448 27.4196 13.2096C27.3831 13.1956 27.3468 13.1814 27.3101 13.1677C27.1854 13.1211 27.0596 13.0755 26.9318 13.032C26.9234 13.0292 26.9148 13.0265 26.9064 13.0236C26.7864 12.9829 26.6646 12.9439 26.5419 12.9058C26.5021 12.8935 26.4617 12.8814 26.4215 12.8693C26.3242 12.8401 26.2259 12.8116 26.1268 12.7839C26.0871 12.7728 26.0477 12.7616 26.0078 12.7508C25.8728 12.7143 25.7367 12.6787 25.5987 12.6452C25.5917 12.6435 25.5845 12.642 25.5776 12.6403C25.4459 12.6086 25.3127 12.5784 25.1783 12.5494C25.1355 12.5401 25.0922 12.5313 25.0491 12.5223C24.9442 12.5005 24.8384 12.4794 24.7318 12.4593C24.6891 12.4512 24.6465 12.4429 24.6035 12.435C24.4582 12.4085 24.3118 12.383 24.1634 12.3596C24.1587 12.3589 24.1538 12.3582 24.149 12.3575C24.0051 12.3348 23.8594 12.314 23.7125 12.2942C23.6673 12.2881 23.6215 12.2823 23.576 12.2766C23.4632 12.2621 23.3495 12.2485 23.2351 12.2356C23.1895 12.2305 23.1441 12.2253 23.0983 12.2205C22.9427 12.2041 22.7861 12.1887 22.6275 12.1754C22.6251 12.1752 22.6227 12.1751 22.6204 12.1749C22.464 12.1617 22.3056 12.1506 22.1463 12.1404C22.0985 12.1374 22.0503 12.1347 22.0024 12.1319C21.882 12.125 21.7607 12.1189 21.6387 12.1136C21.59 12.1115 21.5414 12.1092 21.4925 12.1074C21.3269 12.1013 21.1603 12.096 20.9918 12.0929C14.5495 11.9724 10.1964 10.2781 7.67903 8.87797C4.9567 7.36369 3.73464 5.85789 3.72399 5.84464C3.52997 5.599 3.20186 5.4963 2.8988 5.58625C2.59585 5.6763 2.38083 5.94046 2.35801 6.25055C2.34838 6.38174 2.12889 9.51189 2.73176 13.6092C3.74691 20.5084 6.29256 24.5784 8.24934 26.7776C8.52684 27.0897 9.00972 27.1218 9.32748 26.8489C9.64524 26.5762 9.6778 26.1022 9.4001 25.7901C7.58298 23.7476 5.21432 19.9451 4.24917 13.4278C3.92897 11.2658 3.84885 9.35869 3.84236 8.07172C4.54056 8.6653 5.52823 9.39823 6.83802 10.1346C9.51927 11.6421 14.1464 13.4659 20.9627 13.5934C21.1032 13.596 21.2427 13.5998 21.3809 13.6047C21.4107 13.6057 21.4398 13.6074 21.4694 13.6086C21.5775 13.6127 21.6856 13.6171 21.7923 13.6227C21.8215 13.6242 21.85 13.6264 21.8791 13.628C21.9854 13.634 22.0915 13.64 22.1964 13.6474C22.2297 13.6498 22.2621 13.6528 22.2952 13.6553C22.395 13.6627 22.4949 13.6702 22.5934 13.679C22.6222 13.6816 22.6502 13.6847 22.6789 13.6873C22.7809 13.6968 22.8828 13.7065 22.9834 13.7172C23.0082 13.7199 23.0324 13.7231 23.0571 13.7259C23.1605 13.7374 23.2638 13.7492 23.3657 13.7623C23.4014 13.7668 23.4363 13.7721 23.4718 13.7769C23.5619 13.7888 23.652 13.8008 23.7408 13.8139C23.7843 13.8204 23.8269 13.8278 23.8701 13.8345C23.9499 13.8469 24.0299 13.859 24.1088 13.8724C24.1599 13.8811 24.2098 13.8907 24.2605 13.8998C24.3302 13.9123 24.4003 13.9243 24.4692 13.9375C24.5263 13.9484 24.5823 13.9605 24.6389 13.9719C24.7003 13.9844 24.7621 13.9963 24.8229 14.0093C24.8784 14.0212 24.9327 14.0342 24.9877 14.0466C25.0482 14.0603 25.1094 14.0735 25.1693 14.0879C25.2249 14.1011 25.2794 14.1156 25.3345 14.1293C25.3924 14.1439 25.4509 14.1579 25.5083 14.173C25.5674 14.1887 25.6253 14.2054 25.6838 14.2217C25.7357 14.2361 25.7883 14.2499 25.8398 14.2649C25.9019 14.2829 25.9629 14.3021 26.0243 14.3209C26.0708 14.3351 26.1179 14.3488 26.164 14.3634C26.226 14.3831 26.2867 14.4039 26.3479 14.4244C26.3922 14.4392 26.4373 14.4534 26.4812 14.4686C26.5419 14.4896 26.6015 14.5118 26.6614 14.5336C26.7045 14.5493 26.7482 14.5644 26.7909 14.5804C26.8518 14.6034 26.9114 14.6275 26.9714 14.6512C27.0119 14.6672 27.053 14.6826 27.0932 14.699C27.153 14.7234 27.2116 14.749 27.2707 14.7742C27.3098 14.7909 27.3496 14.8071 27.3883 14.8242C27.4475 14.8503 27.5055 14.8776 27.5638 14.9046C27.601 14.9218 27.6389 14.9384 27.6758 14.956C27.734 14.9837 27.7908 15.0125 27.848 15.0409C27.884 15.0589 27.9206 15.0762 27.9562 15.0945C28.0125 15.1234 28.0675 15.1535 28.1229 15.1832C28.1582 15.2021 28.1941 15.2204 28.229 15.2398C28.2841 15.2702 28.3379 15.3017 28.3921 15.3329C28.4261 15.3525 28.4607 15.3716 28.4943 15.3915C28.5483 15.4234 28.6009 15.4566 28.6539 15.4894C28.6865 15.5096 28.7199 15.5292 28.7522 15.5499C28.8042 15.583 28.855 15.6172 28.9061 15.6512C28.9382 15.6725 28.9709 15.6932 29.0027 15.7149C29.0528 15.7491 29.1016 15.7844 29.1508 15.8194C29.1823 15.8418 29.2145 15.8637 29.2456 15.8865C29.2947 15.9225 29.3426 15.9595 29.3907 15.9962C29.4207 16.0191 29.4513 16.0414 29.4809 16.0646C29.5284 16.1018 29.5745 16.1401 29.6211 16.1782C29.6503 16.2021 29.6801 16.2254 29.7089 16.2495C29.7538 16.2873 29.7975 16.3261 29.8416 16.3646C29.8708 16.3902 29.9006 16.4151 29.9294 16.441C29.9724 16.4796 30.014 16.5194 30.0561 16.5587C30.0847 16.5855 30.114 16.6118 30.1422 16.639C30.1838 16.679 30.224 16.7202 30.2647 16.7609C30.2922 16.7885 30.3203 16.8156 30.3474 16.8435C30.3874 16.8848 30.4263 16.9274 30.4655 16.9695C30.492 16.9979 30.5191 17.0259 30.545 17.0547C30.5837 17.0974 30.621 17.1412 30.6587 17.1847C30.686 17.2161 30.7141 17.2471 30.7409 17.279C30.7461 17.2852 30.752 17.2905 30.7574 17.2965C30.7704 17.311 30.7834 17.3254 30.7974 17.3388C30.8063 17.3473 30.8158 17.355 30.8252 17.3631C30.8349 17.3714 30.844 17.3805 30.8541 17.3884C30.8573 17.3909 30.8608 17.3929 30.864 17.3954C30.871 17.4007 30.8783 17.4056 30.8854 17.4107C30.9005 17.4212 30.9158 17.4313 30.9316 17.4408C30.9397 17.4456 30.9478 17.4505 30.956 17.455C30.9736 17.4647 30.9914 17.4734 31.0096 17.4817C31.0158 17.4846 31.0218 17.4878 31.0282 17.4905C31.05 17.4996 31.0722 17.508 31.0949 17.5152C31.0964 17.5157 31.098 17.5158 31.0995 17.5163C31.1335 17.5268 31.1683 17.535 31.2037 17.5408C31.2126 17.5423 31.2217 17.5428 31.2308 17.544C31.2572 17.5473 31.2838 17.5495 31.3108 17.5501C31.3173 17.5503 31.3236 17.5516 31.3301 17.5516C31.337 17.5516 31.3439 17.5503 31.3508 17.5501C31.3588 17.5499 31.3666 17.5506 31.3746 17.5501C31.3875 17.5494 31.4 17.547 31.4128 17.5456C31.4213 17.5447 31.4298 17.545 31.4383 17.5439C31.4424 17.5433 31.4465 17.542 31.4507 17.5413C31.4712 17.5381 31.4913 17.5335 31.5114 17.5286C31.523 17.5258 31.5345 17.5237 31.5461 17.5204C31.5769 17.5115 31.6071 17.501 31.6364 17.4885C31.637 17.4882 31.6377 17.4881 31.6383 17.4878C31.6634 17.4769 31.6875 17.4646 31.7109 17.4513C31.7162 17.4483 31.7212 17.445 31.7263 17.4419C31.7448 17.4309 31.7627 17.4193 31.7801 17.4069C31.7865 17.4023 31.7928 17.3975 31.799 17.3927C31.8154 17.3802 31.8311 17.3671 31.8463 17.3535C31.8516 17.3488 31.8569 17.3442 31.862 17.3394C31.8653 17.3363 31.8687 17.3336 31.872 17.3304C31.8761 17.3263 31.8791 17.3213 31.8831 17.3171C31.907 17.2925 31.9291 17.2662 31.9496 17.2383C31.9544 17.2317 31.9597 17.2253 31.9644 17.2185C31.9668 17.2149 31.9696 17.2119 31.972 17.2083C33.8465 14.3585 36.13 11.7115 40.1102 11.6394C40.1547 11.6385 40.1987 11.6381 40.243 11.6381C42.5874 11.6381 44.6622 12.7633 45.3167 14.4028C45.3329 14.4436 45.3528 14.4827 45.376 14.5201C46.0854 15.6606 46.7142 16.4266 48.5004 17.438C48.0117 17.534 47.4855 17.6679 46.9443 17.8539C44.8192 18.5845 42.0613 20.278 40.9911 24.1968C40.7547 25.0628 40.6068 25.99 40.4502 26.9717C39.881 30.5411 39.2359 34.5868 34.0858 38.524C29.4628 42.0582 21.8735 41.5229 18.6719 38.7237C18.4303 38.5124 18.0792 38.4733 17.7958 38.6264C14.9391 40.168 14.1337 45.5213 13.9609 49.7405C13.9471 50.0816 13.73 50.3774 13.4207 50.4771C13.3598 50.4967 13.3284 50.499 13.3178 50.499C13.3174 50.499 13.3169 50.499 13.3164 50.499C13.1627 50.499 12.9173 50.3728 12.6801 50.2506C12.3439 50.0778 11.9631 49.8819 11.5194 49.8581C11.0298 49.8337 10.5855 50.0006 10.2281 50.136C10.0338 50.2097 9.76827 50.3103 9.66604 50.2981C9.50629 50.2785 9.27636 50.1156 9.05404 49.9581C8.75484 49.7461 8.41578 49.506 7.99609 49.4191C7.51665 49.32 7.05213 49.4116 6.67879 49.4855C6.50089 49.5206 6.20301 49.5799 6.11791 49.5529C5.94721 49.4991 5.74883 49.2837 5.55703 49.0755C5.32386 48.8222 5.05965 48.5353 4.69898 48.3695C4.23953 48.1584 3.76233 48.1274 3.37874 48.1025C3.21302 48.0916 2.96392 48.0754 2.88572 48.0424C2.5777 47.8315 2.56583 47.7648 2.55325 47.6942C2.48033 47.2822 2.56897 46.8513 2.80276 46.4811C4.71146 43.4584 7.95906 38.9575 12.5916 34.6799C14.6688 32.7621 16.8822 31.7022 16.9038 31.692C17.1915 31.5561 17.363 31.2588 17.3336 30.9466C17.3043 30.6343 17.0803 30.3728 16.7719 30.2911C14.9815 29.816 13.3467 29.0607 11.9132 28.0457C11.5711 27.8035 11.0933 27.8793 10.8465 28.2156C10.5997 28.5518 10.6771 29.0208 11.0195 29.2632C12.141 30.0573 13.3718 30.7069 14.6941 31.204C13.8154 31.7495 12.6695 32.5478 11.5447 33.5864C6.79137 37.9755 3.4609 42.5909 1.50392 45.6899C1.07236 46.3732 0.91028 47.1763 1.04761 47.9513C1.12804 48.4057 1.3246 48.8056 2.0225 49.2812C2.40761 49.5436 2.8698 49.5736 3.27752 49.6002C3.55989 49.6185 3.85179 49.6376 4.05119 49.7292C4.13263 49.7666 4.30059 49.949 4.42331 50.0823C4.71998 50.4045 5.08937 50.8056 5.65187 50.9825C6.11537 51.128 6.57483 51.0372 6.98022 50.9571C7.24058 50.9057 7.50986 50.8526 7.68066 50.8879C7.78391 50.9093 7.99243 51.0569 8.15988 51.1755C8.5027 51.4183 8.92929 51.7204 9.47678 51.7875C9.95956 51.8465 10.3944 51.6817 10.7783 51.5364C11.0223 51.444 11.2752 51.3488 11.4364 51.357C11.5484 51.363 11.7826 51.4834 11.9708 51.5803C12.3345 51.7675 12.7866 52 13.3167 52C13.3196 52 13.3227 52 13.3256 52C13.5111 51.999 13.698 51.9673 13.8965 51.9035C14.809 51.61 15.4485 50.765 15.4879 49.8009C15.6885 44.8988 16.64 41.4684 18.1223 40.2228C20.038 41.6607 22.841 42.4859 25.925 42.5041C29.3606 42.5243 32.6744 41.5053 35.0243 39.7085C40.652 35.4063 41.3773 30.8583 41.9599 27.2039C42.1099 26.263 42.2517 25.3743 42.4671 24.5857C43.1827 21.9648 44.8427 20.1822 47.4009 19.2874C49.3702 18.5986 51.1639 18.7111 51.1802 18.7123C51.5453 18.7368 51.8828 18.5032 51.9755 18.1525C52.068 17.802 51.8923 17.4363 51.5578 17.2836Z" fill="black" stroke="black"/>
</svg>
