<svg width="54" height="54" viewBox="0 0 54 54" fill="none" xmlns="http://www.w3.org/2000/svg">
<path d="M52.1333 7.24328H48.6667V2.04366C48.6684 1.46936 48.2818 1.00204 47.803 1.00009C47.7777 0.999962 47.7524 1.00126 47.7272 1.00373L45.4661 1.23252C39.9828 1.77666 34.6047 3.35019 29.5281 5.89554L27 7.15697L24.4745 5.8997C19.3974 3.35396 14.0186 1.78017 8.5348 1.23564L6.2728 1.00373C5.79581 0.955505 5.37656 1.38031 5.33637 1.95266C5.3342 1.98295 5.33323 2.01337 5.33333 2.04366V7.24328H1.86667C1.38805 7.24328 1 7.70891 1 8.28321V51.9601C1 52.5344 1.38805 53 1.86667 53H52.1333C52.6119 53 53 52.5344 53 51.9601V8.28321C53 7.70891 52.6119 7.24328 52.1333 7.24328ZM2.73333 50.9222V9.32313H5.33333V45.7205C5.33171 46.2621 5.67664 46.7144 6.12633 46.7604L8.45853 46.9996C9.09412 47.0635 9.72961 47.1421 10.3652 47.2357C10.5775 47.2659 10.7881 47.3064 11.0005 47.3397C11.4208 47.4073 11.8411 47.4749 12.2597 47.555C12.5093 47.6028 12.7581 47.6589 13.0068 47.712C13.3864 47.7921 13.766 47.8721 14.1439 47.9616C14.4039 48.024 14.6639 48.0926 14.9239 48.1602C15.2887 48.2538 15.6536 48.3495 16.0167 48.4534C16.2767 48.5283 16.5411 48.6084 16.8028 48.6885C17.1607 48.7987 17.5178 48.911 17.874 49.0296C18.134 49.1169 18.394 49.2084 18.654 49.2999C19.0076 49.4254 19.3603 49.5558 19.7122 49.691C19.9699 49.7894 20.227 49.8906 20.4835 49.9946C20.838 50.1371 21.1899 50.2868 21.5417 50.4397C21.7913 50.5437 22.0418 50.657 22.2897 50.7704C22.3971 50.8193 22.5037 50.8744 22.6103 50.9222H2.73333ZM26.1333 50.4002L24.5352 49.5994C19.462 47.049 14.0864 45.4699 8.605 44.9198L7.06667 44.7659V3.1751L8.3892 3.30821C13.6939 3.83415 18.8968 5.35608 23.8081 7.81836L26.1333 8.97684V50.4002ZM27.8667 50.4002V8.97684L30.1945 7.81732C35.105 5.35556 40.307 3.83402 45.6108 3.30821L46.9333 3.1751V44.7627L45.5094 44.9021C40.0246 45.4484 34.6443 47.0182 29.5627 49.5547L27.8667 50.4002ZM51.2667 50.9202H31.4027C31.5214 50.865 31.6393 50.8068 31.758 50.7527C32.018 50.6331 32.278 50.5198 32.5441 50.4064C32.8838 50.2588 33.2249 50.1156 33.5676 49.9769C33.8345 49.8729 34.1032 49.769 34.371 49.665C34.7133 49.5339 35.0574 49.4091 35.4015 49.2864C35.6719 49.1908 35.9431 49.0961 36.2144 49.0067C36.5611 48.8902 36.9077 48.781 37.2631 48.6739C37.5317 48.5918 37.8013 48.5096 38.0717 48.4326C38.4322 48.3287 38.7953 48.2351 39.1585 48.1425C39.4185 48.0749 39.6785 48.0052 39.9437 47.9428C40.325 47.8524 40.7081 47.7723 41.0903 47.6922C41.3381 47.6402 41.5851 47.5882 41.8339 47.5362C42.2611 47.4551 42.6893 47.3854 43.1183 47.3168C43.3237 47.2846 43.5291 47.2451 43.7353 47.2128C44.3709 47.1207 45.0097 47.0419 45.6515 46.9768L47.8711 46.7604C48.3217 46.716 48.6682 46.2631 48.6667 45.7205V9.32313H51.2667V50.9202Z" fill="black" stroke="black" stroke-width="0.5"/>
</svg>
