<svg width="54" height="54" viewBox="0 0 54 54" fill="none" xmlns="http://www.w3.org/2000/svg">
<path d="M53 32.8126C53 34.6115 52.2669 36.3437 51.0006 37.6096L37.6049 51.0012C34.9391 53.6663 30.6072 53.6663 27.9414 51.0012L3.01602 26.0834C1.54982 24.6177 0.883371 22.6189 1.01666 20.6202L2.21628 8.36114C2.5495 5.09651 5.08202 2.56475 8.34764 2.23163L20.5437 1.03237C22.5431 0.832498 24.6091 1.56537 26.0087 3.03113L51.0006 27.9489C52.2669 29.2148 53 31.0137 53 32.8126ZM2.5495 21.2198C2.5495 22.6189 3.08267 23.9514 4.08235 24.9508L29.0077 49.9352C31.0737 52.0006 34.4726 52.0006 36.5386 49.9352L49.9343 36.5436C52.0003 34.4782 52.0003 31.0803 49.9343 29.0149L25.009 4.09713C23.876 2.9645 22.3432 2.4315 20.7437 2.56475L8.54758 3.764C6.01506 4.03051 4.0157 6.02926 3.74912 8.56102L2.5495 20.7534C2.5495 20.8867 2.5495 21.0865 2.5495 21.2198Z" fill="black" stroke="black" stroke-width="1.5"/>
<path d="M23.2797 17.6592C23.2797 20.774 20.7614 23.2261 17.6466 23.2261C14.5318 23.2261 12.0797 20.7078 12.0797 17.593C12.0797 14.4782 14.5981 12.0261 17.7128 12.0261C19.1708 12.0261 20.6288 12.6226 21.6229 13.6829C22.6833 14.7433 23.2797 16.2013 23.2797 17.6592ZM13.604 17.6592C13.604 19.9125 15.4596 21.7681 17.7128 21.7681C19.9661 21.7681 21.8217 19.9125 21.8217 17.6592C21.8217 16.5989 21.4241 15.5385 20.6288 14.7433C19.0383 13.1527 16.4537 13.1527 14.8631 14.7433C14.0016 15.5385 13.604 16.5989 13.604 17.6592Z" fill="black" stroke="black" stroke-width="1.5"/>
</svg>
