<svg width="51" height="51" viewBox="0 0 51 51" fill="none" xmlns="http://www.w3.org/2000/svg">
<path d="M50.5 24.8106L50.5 45.1375C50.5 45.1379 50.5 45.1383 50.5 45.1387C50.4891 48.229 48.5645 50.5 46.4449 50.5H43.5679C41.4483 50.5 39.5237 48.229 39.5128 45.1387C39.5128 45.1383 39.5128 45.1379 39.5128 45.1375L39.5128 42.2652V41.7652H39.0128H11.9872H11.4872V42.2652V45.1384C11.4764 48.2289 9.55175 50.5 7.43205 50.5H4.55513C2.43543 50.5 0.510736 48.2289 0.5 45.1384V25.3309C0.5 23.0698 1.27185 20.9412 2.57139 19.5105L2.57829 19.5029L2.58488 19.495L4.1868 17.579L4.25471 17.4978L4.28387 17.396L8.13028 3.97107C8.13034 3.97089 8.13039 3.9707 8.13044 3.97051C8.75512 1.81322 10.3069 0.5 11.9109 0.5H39.7737C41.3825 0.512909 42.9328 1.81747 43.5562 3.97087C43.5562 3.97093 43.5562 3.971 43.5563 3.97107L47.4572 17.5653L47.4817 17.6506L47.5341 17.7223L48.6456 19.2438L48.6529 19.2538L48.6606 19.2634C49.8218 20.6986 50.4893 22.6969 50.5 24.8106ZM50.5 24.8106V24.8097H51M50.5 24.8106C50.5 24.8111 50.5 24.8116 50.5 24.8121L51 24.8097M51 24.8097C50.9891 22.5978 50.2917 20.4845 49.0494 18.9489M51 24.8097V45.1392C50.9891 48.3796 48.9513 51 46.4449 51H43.5679C41.0615 51 39.0237 48.3796 39.0128 45.1392L49.0494 18.9489M49.0494 18.9489L47.9378 17.4273L49.0494 18.9489ZM9.21865 4.65026L9.21816 4.65199L5.81816 16.4862L5.63484 17.1243H6.29872H28.0718H28.5181L28.5686 16.6809C29.0322 12.6078 31.4892 9.53835 34.464 8.97241L34.4653 8.97215C38.1473 8.26129 41.781 11.5519 42.3628 16.6807L42.4131 17.1243H42.8596H45.3987H46.0626L45.8793 16.4862L42.4793 4.65199L42.4783 4.64873C42.0884 3.32551 41.0567 2.31768 39.7865 2.31768H11.9109C10.6431 2.31768 9.60933 3.30866 9.21865 4.65026ZM40.6365 17.1243H41.225L41.13 16.5435C40.6726 13.7499 38.9734 11.4751 36.6826 10.845L36.6805 10.8444C33.413 9.96101 30.4049 12.6785 29.7795 16.5445L29.6857 17.1243H30.2731H40.6365ZM10.3077 45.1424V45.1392V42.2652V41.7652H9.80769H4.55513C3.79279 41.7652 3.05129 41.5276 2.50116 41.0653L1.67949 40.3748V41.4481L1.67948 45.1392L1.6795 45.1424C1.69136 46.9827 2.86227 48.6823 4.55513 48.6823H7.43205C9.12491 48.6823 10.2958 46.9827 10.3077 45.1424ZM49.3205 45.1424V45.1392V41.4481V40.3748L48.4988 41.0653C47.9487 41.5276 47.2072 41.7652 46.4449 41.7652H41.1923H40.6923V42.2652L40.6923 45.1392L40.6923 45.1425C40.7042 46.967 41.8738 48.6823 43.5679 48.6823H46.4449C48.1377 48.6823 49.3086 46.9827 49.3205 45.1424ZM49.3238 35.9326H49.3096V24.8097C49.3096 23.2719 48.819 21.7754 47.936 20.6781C47.9219 20.6566 47.9081 20.6387 47.8963 20.6246C47.8878 20.6144 47.8799 20.6055 47.873 20.5982L46.8287 19.1496L46.679 18.942H46.4231H5.15449H4.91822L4.7682 19.1245L3.28615 20.9278L3.28146 20.9335L3.27694 20.9394L3.25515 20.9676L3.24568 20.9798C2.24322 22.0845 1.67949 23.6825 1.67949 25.3309L1.67948 36.4326L1.6795 36.4358C1.69137 38.2775 2.87526 39.9641 4.55798 39.9475H46.442C48.126 39.9641 49.3086 38.2618 49.3205 36.4358L49.3238 35.9326Z" fill="black" stroke="black"/>
<path d="M14.6059 25.0771H6.30707C5.69849 25.0771 5.20056 25.7111 5.20056 26.4859V33.8119C5.20056 34.5868 5.69849 35.2207 6.30707 35.2207H14.6059C15.2145 35.2207 15.7124 34.5868 15.7124 33.8119V26.4859C15.7124 25.7111 15.2145 25.0771 14.6059 25.0771ZM13.4994 32.4031H7.41358V27.8948H13.4994V32.4031Z" fill="black"/>
<path d="M45.4775 25.0771H37.1787C36.5701 25.0771 36.0722 25.7111 36.0722 26.4859V33.8119C36.0722 34.5868 36.5701 35.2207 37.1787 35.2207H45.4775C46.0861 35.2207 46.584 34.5868 46.584 33.8119V26.4859C46.584 25.7111 46.0861 25.0771 45.4775 25.0771ZM44.371 32.4031H38.2852V27.8948H44.371V32.4031Z" fill="black"/>
<path d="M31.2367 30.9951H20.5479C19.9393 30.9951 19.4413 31.6291 19.4413 32.404C19.4413 33.1788 19.9393 33.8128 20.5479 33.8128H31.2367C31.8453 33.8128 32.3432 33.1788 32.3432 32.404C32.3432 31.6291 31.8453 30.9951 31.2367 30.9951Z" fill="black"/>
<path d="M31.2367 26.6272H20.5479C19.9393 26.6272 19.4413 27.2611 19.4413 28.036C19.4413 28.8109 19.9393 29.4448 20.5479 29.4448H31.2367C31.8453 29.4448 32.3432 28.8109 32.3432 28.036C32.3432 27.2611 31.8453 26.6272 31.2367 26.6272Z" fill="black"/>
</svg>
