<svg width="59" height="59" viewBox="0 0 59 59" fill="none" xmlns="http://www.w3.org/2000/svg">
<path d="M54.6571 36.8778C54.4138 35.9689 53.9148 35.1714 53.2338 34.6031C52.5529 34.0348 51.7261 33.7259 50.8757 33.722H49.146C49.146 31.3901 48.3154 29.1538 46.837 27.5049C45.3586 25.856 43.3535 24.9297 41.2627 24.9297C39.1719 24.9297 37.1668 25.856 35.6884 27.5049C34.21 29.1538 33.3794 31.3901 33.3794 33.722H31.6497C30.7993 33.7259 29.9725 34.0348 29.2916 34.6031C28.6106 35.1713 28.1116 35.9688 27.8683 36.8776L23.7054 52.6638C23.5111 53.4007 23.4734 54.1781 23.5955 54.934C23.7175 55.69 23.9959 56.4039 24.4085 57.0189C24.8211 57.6339 25.3566 58.1332 25.9724 58.4771C26.5882 58.8211 27.2675 59.0001 27.9562 59.0001H54.5692C55.2579 59.0001 55.9371 58.8211 56.553 58.4772C57.1688 58.1333 57.7043 57.634 58.1169 57.019C58.5295 56.404 58.8079 55.6901 58.9299 54.9342C59.052 54.1782 59.0143 53.4009 58.82 52.664L54.6571 36.8778ZM35.3502 33.722C35.3502 31.9731 35.9732 30.2958 37.082 29.0592C38.1908 27.8225 39.6946 27.1278 41.2627 27.1278C42.8308 27.1278 44.3346 27.8225 45.4434 29.0592C46.5522 30.2958 47.1751 31.9731 47.1751 33.722V42.0592L46.1897 43.1582L45.2043 42.0592V33.722C45.2043 32.5561 44.789 31.4379 44.0498 30.6135C43.3106 29.789 42.3081 29.3258 41.2627 29.3258C40.2173 29.3258 39.2147 29.789 38.4755 30.6135C37.7363 31.4379 37.3211 32.5561 37.3211 33.722V42.0592L36.3356 43.1582L35.3502 42.0592V33.722ZM43.2335 33.722H39.2919C39.2919 33.1391 39.4995 32.58 39.8691 32.1677C40.2387 31.7555 40.74 31.5239 41.2627 31.5239C41.7854 31.5239 42.2867 31.7555 42.6563 32.1677C43.0259 32.58 43.2335 33.1391 43.2335 33.722ZM54.5692 56.802H27.9562C27.5738 56.802 27.1967 56.7026 26.8548 56.5116C26.5129 56.3207 26.2156 56.0435 25.9865 55.702C25.7574 55.3605 25.6029 54.9642 25.5351 54.5445C25.4673 54.1248 25.4882 53.6932 25.5961 53.284L29.759 37.4979C29.8807 37.0434 30.1302 36.6447 30.4707 36.3606C30.8111 36.0765 31.2245 35.9221 31.6497 35.9201H33.3794V42.5144C33.3794 42.8059 33.4832 43.0855 33.6681 43.2916L35.6389 45.4897C35.8237 45.6957 36.0743 45.8115 36.3356 45.8115C36.597 45.8115 36.8476 45.6957 37.0324 45.4897L39.0032 43.2916C39.188 43.0855 39.2919 42.8059 39.2919 42.5144V35.9201H43.2335V42.5144C43.2335 42.8059 43.3373 43.0855 43.5221 43.2916L45.493 45.4897C45.6778 45.6958 45.9284 45.8115 46.1897 45.8115C46.4511 45.8115 46.7017 45.6958 46.8865 45.4897L48.8573 43.2916C49.0421 43.0855 49.146 42.8059 49.146 42.5144V35.9201H50.8757C51.3009 35.9221 51.7142 36.0765 52.0547 36.3606C52.3952 36.6447 52.6447 37.0434 52.7664 37.4979L56.9293 53.2842C57.0372 53.6933 57.0581 54.1249 56.9903 54.5446C56.9225 54.9643 56.768 55.3606 56.5389 55.7021C56.3098 56.0436 56.0125 56.3208 55.6706 56.5117C55.3287 56.7026 54.9516 56.802 54.5692 56.802Z" fill="black"/>
<path d="M11.8235 42.8975L11.2773 45.6329L13.1971 46.1075L13.7434 43.3722L11.8235 42.8975Z" fill="black"/>
<path d="M0.172078 58.5243C0.262551 58.671 0.38391 58.7909 0.525638 58.8738C0.667366 58.9567 0.825188 59.0001 0.985429 59.0001H21.6795V56.8149H11.0828L11.9112 52.6815L9.98724 52.2075L9.06382 56.8149H2.42598L15.4556 19.6667H16.5093L12.3961 40.189L14.32 40.663L18.5283 19.6667H19.7086V38.2408H21.6795V19.6667H22.8599L25.7541 34.1074L27.6781 33.6334L24.8788 19.6667H25.9326L29.9037 30.9886L31.7405 30.1966L27.654 18.5456L31.4832 5.80854C31.5336 5.64097 31.5466 5.46236 31.5211 5.288C31.4956 5.11365 31.4323 4.94875 31.3367 4.80744L29.2848 1.77413C28.9186 1.23265 28.4454 0.791299 27.9016 0.483878C27.3577 0.176457 26.7576 0.0111241 26.1472 0.000542156C25.5369 -0.0100398 24.9324 0.13441 24.3801 0.422828C23.8279 0.711246 23.3425 1.13598 22.9611 1.6645L20.6941 4.80665L18.427 1.66464C18.0457 1.13609 17.5603 0.711333 17.008 0.422891C16.4558 0.134449 15.8513 -0.0100207 15.2409 0.000548408C14.6305 0.0111175 14.0304 0.176445 13.4866 0.483867C12.9427 0.791289 12.4695 1.23265 12.1033 1.77414L10.0514 4.80745C9.95582 4.94875 9.89256 5.11365 9.86704 5.288C9.84152 5.46236 9.85451 5.64098 9.9049 5.80855L13.7341 18.5456L0.0670066 57.5115C0.00892999 57.6771 -0.0118546 57.8558 0.00645444 58.0323C0.0247635 58.2088 0.0816136 58.3777 0.172078 58.5243ZM11.9379 5.6605L13.68 3.0852C13.8658 2.8105 14.1058 2.5866 14.3817 2.43064C14.6576 2.27469 14.962 2.19082 15.2717 2.18547C15.5813 2.18011 15.888 2.25341 16.1681 2.39975C16.4483 2.54608 16.6945 2.76157 16.888 3.02971L19.9245 7.23817C20.0169 7.36611 20.134 7.46938 20.2672 7.54035C20.4004 7.61131 20.5463 7.64816 20.6941 7.64816C20.8418 7.64816 20.9877 7.61131 21.1209 7.54035C21.2541 7.46938 21.3712 7.36611 21.4636 7.23817L24.5002 3.02971C24.6936 2.76157 24.9398 2.54608 25.22 2.39975C25.5001 2.25341 25.8068 2.18011 26.1164 2.18547C26.4261 2.19082 26.7305 2.27469 27.0064 2.43064C27.2823 2.5866 27.5224 2.8105 27.7082 3.0852L29.4502 5.6605L25.8964 17.4815H15.4917L11.9379 5.6605Z" fill="black"/>
<path d="M21.6582 40.3028H19.7911V53.5986H21.6582V40.3028Z" fill="black"/>
</svg>
