<svg width="57" height="57" viewBox="0 0 57 57" fill="none" xmlns="http://www.w3.org/2000/svg">
<path d="M53.9469 16.9844C53.777 16.8121 53.5415 16.7142 53.2949 16.7142H27.1474C26.9008 16.7142 26.6652 16.8121 26.4953 16.9844C26.3249 17.1567 26.235 17.3893 26.2465 17.628L26.8978 31.187C26.9207 31.668 27.3495 32.0474 27.8404 32.0184C28.3379 31.9962 28.7224 31.5869 28.6994 31.1052L28.092 18.4603H52.3511L50.6314 54.2538H30.3822C29.8843 54.2538 29.4805 54.6442 29.4805 55.1268C29.4805 55.6094 29.8843 55.9999 30.3822 55.9999H51.4918C51.9735 55.9999 52.37 55.6332 52.3925 55.1676L54.1958 17.628C54.2071 17.3893 54.1175 17.1567 53.9469 16.9844Z" fill="black" stroke="black" stroke-width="0.5"/>
<path d="M37.0657 49.016H4.60665C4.10873 49.016 3.70497 49.4064 3.70497 49.889C3.70497 53.2584 6.53629 56.0002 10.0165 56.0002H31.6558C35.1359 56.0002 37.9674 53.2582 37.9674 49.889C37.9672 49.4064 37.5636 49.016 37.0657 49.016ZM31.6558 54.254H10.0165C7.83922 54.254 6.01749 52.7518 5.59894 50.762H36.0734C35.6546 52.7518 33.8328 54.254 31.6558 54.254Z" fill="black" stroke="black" stroke-width="0.5"/>
<path d="M37.0656 43.7779H4.6066C2.61806 43.7779 1 45.3441 1 47.27C1 49.1959 2.61793 50.7621 4.6066 50.7621H37.0656C39.0542 50.7621 40.6722 49.1959 40.6722 47.27C40.6722 45.3441 39.0542 43.7779 37.0656 43.7779ZM37.0656 49.016H4.6066C3.61207 49.016 2.80337 48.2324 2.80337 47.27C2.80337 46.3076 3.6122 45.524 4.6066 45.524H37.0656C38.0602 45.524 38.8689 46.3076 38.8689 47.27C38.8689 48.2324 38.06 49.016 37.0656 49.016Z" fill="black" stroke="black" stroke-width="0.5"/>
<path d="M39.7702 27.1903C35.6565 27.1903 32.0664 29.8812 31.0396 33.7329C30.9149 34.2002 31.2051 34.6758 31.6872 34.7969C32.1705 34.9163 32.661 34.6367 32.7857 34.1694C33.6067 31.088 36.4788 28.9363 39.7702 28.9363C43.7476 28.9363 46.9833 32.0693 46.9833 35.9203C46.9833 39.7714 43.7476 42.9044 39.7702 42.9044C38.9431 42.9044 38.1329 42.7706 37.3629 42.5063C36.894 42.347 36.3781 42.5832 36.2121 43.0375C36.0457 43.4919 36.2915 43.9906 36.7608 44.1518C37.7247 44.4825 38.7371 44.6505 39.7704 44.6505C44.7423 44.6505 48.7866 40.734 48.7866 35.9203C48.7866 31.1067 44.7421 27.1903 39.7702 27.1903Z" fill="black" stroke="black" stroke-width="0.5"/>
<path d="M22.6394 29.8098H19.0328C10.5809 29.8098 3.70497 36.4673 3.70497 44.6509C3.70497 45.1334 4.10873 45.524 4.60665 45.524H37.0657C37.5636 45.524 37.9674 45.1335 37.9674 44.6509C37.9672 36.4675 31.0913 29.8098 22.6394 29.8098ZM5.53819 43.778C6.00389 36.9626 11.8782 31.5559 19.0328 31.5559H22.6394C29.794 31.5559 35.6683 36.9626 36.134 43.778H5.53819Z" fill="black" stroke="black" stroke-width="0.5"/>
<path d="M12.7499 35.0478H12.6927C12.2105 35.0478 11.8197 35.4387 11.8197 35.9208C11.8197 36.4029 12.2105 36.7938 12.6927 36.7938H12.7499C13.2321 36.7938 13.6229 36.4029 13.6229 35.9208C13.6229 35.4387 13.2321 35.0478 12.7499 35.0478Z" fill="black" stroke="black" stroke-width="0.5"/>
<path d="M11.8483 38.5399H11.791C11.3089 38.5399 10.918 38.9307 10.918 39.4128C10.918 39.895 11.3089 40.2858 11.791 40.2858H11.8483C12.3304 40.2858 12.7213 39.895 12.7213 39.4128C12.7213 38.9307 12.3304 38.5399 11.8483 38.5399Z" fill="black" stroke="black" stroke-width="0.5"/>
<path d="M22.6677 34.1744H22.6105C22.1284 34.1744 21.7375 34.5652 21.7375 35.0474C21.7375 35.5295 22.1284 35.9204 22.6105 35.9204H22.6677C23.1499 35.9204 23.5407 35.5295 23.5407 35.0474C23.5407 34.5652 23.1499 34.1744 22.6677 34.1744Z" fill="black" stroke="black" stroke-width="0.5"/>
<path d="M28.0778 38.5399H28.0205C27.5384 38.5399 27.1475 38.9307 27.1475 39.4128C27.1475 39.895 27.5384 40.2858 28.0205 40.2858H28.0778C28.5599 40.2858 28.9508 39.895 28.9508 39.4128C28.9508 38.9307 28.5599 38.5399 28.0778 38.5399Z" fill="black" stroke="black" stroke-width="0.5"/>
<path d="M19.963 39.4124H19.9057C19.4236 39.4124 19.0327 39.8033 19.0327 40.2854C19.0327 40.7676 19.4236 41.1584 19.9057 41.1584H19.963C20.4451 41.1584 20.836 40.7676 20.836 40.2854C20.836 39.8033 20.4451 39.4124 19.963 39.4124Z" fill="black" stroke="black" stroke-width="0.5"/>
<path d="M55.0983 13.2221H24.4425C23.9446 13.2221 23.5408 13.6126 23.5408 14.0952V17.5873C23.5408 18.0698 23.9446 18.4603 24.4425 18.4603H55.0983C55.5962 18.4603 56 18.0699 56 17.5873V14.0952C56 13.6126 55.5962 13.2221 55.0983 13.2221ZM54.1966 16.7141H25.3442V14.9681H54.1966V16.7141Z" fill="black" stroke="black" stroke-width="0.5"/>
<path d="M31.636 13.9121L28.931 1.68995C28.8267 1.21934 28.3482 0.917541 27.8603 1.01998C27.3735 1.12062 27.0631 1.58522 27.1674 2.05672L29.8723 14.2788C29.9629 14.6881 30.3371 14.9685 30.7533 14.9685C30.8158 14.9685 30.8797 14.9624 30.9431 14.9488C31.43 14.8482 31.7404 14.3835 31.636 13.9121Z" fill="black" stroke="black" stroke-width="0.5"/>
</svg>
