<svg width="51" height="51" viewBox="0 0 51 51" fill="none" xmlns="http://www.w3.org/2000/svg">
<path d="M30.8298 11.0397H21.7492C20.993 11.0397 20.3618 11.6271 20.2956 12.3923L19.501 21.6137C19.4653 22.0277 19.6025 22.4376 19.8788 22.7439C20.1554 23.0503 20.5457 23.2244 20.955 23.2244H30.0356C30.7922 23.2244 31.4234 22.6374 31.4895 21.8718L32.2837 12.6508C32.3195 12.2368 32.1823 11.8269 31.906 11.5206C31.6294 11.2142 31.2391 11.0397 30.8298 11.0397ZM28.6984 20.2612H22.5472L23.0864 14.0033H29.2376L28.6984 20.2612Z" fill="black"/>
<path d="M45.2775 22.2481C46.688 22.2481 48.0553 21.6882 49.1276 20.6719C50.1984 19.6572 50.856 18.2992 50.979 16.8489C51.1066 15.3441 50.6498 13.9223 49.6926 12.8455C48.7385 11.7722 47.4113 11.1814 45.9522 11.1814H40.6126L41.0803 5.66791C41.2083 4.1627 40.7515 2.74091 39.7939 1.66404C38.8403 0.591177 37.513 0 36.057 0C34.6465 0 33.2793 0.559893 32.2069 1.5762C31.1361 2.59091 30.4785 3.94853 30.3556 5.3992L29.8645 11.1814H23.5662L24.0343 5.66751C24.1619 4.1627 23.7051 2.74091 22.7479 1.66364C21.7938 0.590775 20.4666 0 19.0106 0C17.6001 0 16.2328 0.559492 15.1605 1.5758C14.0897 2.59091 13.4325 3.94853 13.3091 5.3992L12.8185 11.181H7.2139C5.80341 11.181 4.43612 11.7409 3.36376 12.7572C2.29296 13.7723 1.63538 15.1299 1.51243 16.5806C1.3848 18.0854 1.842 19.5076 2.79918 20.5845C3.75325 21.6574 5.08008 22.2481 6.53609 22.2481H11.8788L11.3267 28.7523H5.72248C4.312 28.7523 2.9447 29.3118 1.87235 30.3281C0.801545 31.3432 0.144357 32.7008 0.0210127 34.1511C-0.106612 35.6563 0.35019 37.0781 1.30776 38.1549C2.26145 39.2278 3.58866 39.8186 5.04467 39.8186H10.3878L9.91969 45.3325C9.79207 46.8373 10.2489 48.2591 11.2064 49.3364C12.1601 50.4092 13.4873 51 14.9434 51C16.3538 51 17.7211 50.4405 18.7931 49.4242C19.8643 48.4091 20.5219 47.0515 20.6448 45.6012C20.6456 45.5936 20.6464 45.586 20.6468 45.5783L21.1355 39.8186L27.4338 39.819L26.9661 45.3321C26.8381 46.8373 27.2953 48.2591 28.2525 49.336C29.2062 50.4092 30.5334 51 31.9894 51C33.3999 51 34.7672 50.4405 35.8395 49.4242C36.9103 48.4091 37.5679 47.0515 37.6912 45.6008C37.6916 45.5964 37.692 45.5916 37.6924 45.5868L38.1819 39.819H43.7865C43.7982 39.819 43.8098 39.819 43.8215 39.8186C45.2195 39.8094 46.5732 39.2507 47.6366 38.2428C48.7074 37.2277 49.365 35.8701 49.488 34.4198C49.6156 32.915 49.1588 31.4932 48.2012 30.4159C47.2475 29.343 45.9203 28.7523 44.4612 28.7523H39.1212L39.6733 22.2481H45.2775ZM36.3885 31.3328C36.6718 31.6512 37.0714 31.8325 37.4905 31.8325H44.4639C45.0721 31.8325 45.6168 32.0683 45.9981 32.4971C46.3826 32.9298 46.5647 33.517 46.511 34.1511C46.3919 35.5536 45.1441 36.7384 43.7861 36.7384C43.7764 36.7384 43.7666 36.7388 43.7565 36.7388H36.8127C36.038 36.7388 35.3917 37.3492 35.3244 38.1445L34.7143 45.3293C34.7143 45.3337 34.7139 45.3377 34.7135 45.3417C34.5894 46.7402 33.3442 47.9198 31.9894 47.9198C31.3812 47.9198 30.8365 47.684 30.4556 47.2552C30.0711 46.8225 29.8886 46.2349 29.9427 45.6008L30.5528 38.4132C30.5894 37.9829 30.4489 37.557 30.1661 37.2385C29.8828 36.9201 29.4832 36.7388 29.0641 36.7388L19.7662 36.7384C18.9915 36.7384 18.3452 37.3488 18.2779 38.1445L17.6682 45.3293C17.6674 45.3357 17.667 45.3417 17.6667 45.3477C17.5398 46.7435 16.2959 47.9202 14.9434 47.9202C14.3352 47.9202 13.7905 47.684 13.4091 47.2552C13.0247 46.8229 12.8426 46.2353 12.8967 45.6008L13.5068 38.4128C13.5434 37.9829 13.4029 37.5566 13.12 37.2381C12.8368 36.9201 12.4372 36.7388 12.0181 36.7388H5.04467C4.43651 36.7388 3.89177 36.5025 3.51084 36.0742C3.12641 35.6414 2.94392 35.0539 2.99801 34.4198C3.11707 33.0172 4.36453 31.8325 5.72248 31.8325H12.6959C13.4706 31.8325 14.1169 31.2221 14.1842 30.4267L14.9978 20.8424C15.0344 20.4124 14.8939 19.9861 14.6111 19.6676C14.3282 19.3496 13.9282 19.1683 13.5095 19.1683H6.53609C5.92793 19.1683 5.38319 18.9321 5.00226 18.5037C4.61783 18.071 4.43534 17.4834 4.48943 16.8493C4.60849 15.4464 5.85633 14.2616 7.2139 14.2616H14.1873C14.962 14.2616 15.6083 13.6512 15.6756 12.8559L16.2861 5.66791C16.4052 4.26537 17.6526 3.08062 19.0106 3.08062C19.6188 3.08062 20.1635 3.31644 20.5444 3.74519C20.9289 4.17754 21.1113 4.76511 21.0573 5.3992L20.4472 12.5872C20.4106 13.0175 20.551 13.4439 20.8339 13.7619C21.1168 14.0803 21.5168 14.2616 21.9355 14.2616H31.2334C32.0081 14.2616 32.6544 13.6512 32.7221 12.8559L33.3322 5.66791C33.4512 4.26537 34.6991 3.08062 36.057 3.08062C36.6648 3.08062 37.2099 3.31644 37.5909 3.74519C37.9753 4.17754 38.1574 4.76511 38.1037 5.3992L37.4936 12.5872C37.457 13.0175 37.5975 13.4434 37.8804 13.7619C38.1632 14.0803 38.5628 14.2616 38.9819 14.2616H45.9557C46.5635 14.2616 47.1082 14.4979 47.4892 14.9262C47.874 15.359 48.0561 15.9465 48.002 16.5806C47.8833 17.9836 46.6355 19.1683 45.2775 19.1683H38.3037C37.5294 19.1683 36.8831 19.7787 36.8154 20.5741L36.0018 30.1584C35.9652 30.5884 36.1057 31.0143 36.3885 31.3328Z" fill="black"/>
</svg>
