<svg width="45" height="61" viewBox="0 0 45 61" fill="none" xmlns="http://www.w3.org/2000/svg">
<path d="M38.5481 60.744C38.5481 60.6014 38.626 60.1677 38.7212 59.7803C38.994 58.6702 39.1343 57.6201 39.1337 56.6916C39.133 55.7709 39.0818 55.5677 38.7118 55.0219C38.3955 54.5554 38.193 54.0222 38.1064 53.4279C38.0636 53.1341 37.9626 52.6973 37.8818 52.4573C37.8011 52.2173 37.6922 51.8082 37.6398 51.5482C37.5873 51.2882 37.3595 50.4208 37.1335 49.6207C36.9075 48.8207 36.6955 48.0679 36.6623 47.9479C36.61 47.7588 36.5722 47.7326 36.3784 47.7513C36.131 47.7748 36.1009 47.7277 35.8787 46.9661C35.5913 45.9806 35.3419 42.6872 35.3141 39.511C35.291 36.863 35.5566 34.5114 36.0646 32.867C36.143 32.6131 36.1877 32.3738 36.1639 32.3355C36.1105 32.2497 35.7824 32.3165 35.3704 32.4981C35.2 32.5731 34.8907 32.6707 34.6832 32.7149C34.4756 32.7587 34.3011 32.8335 34.2954 32.8802C34.2898 32.9272 34.294 33.6016 34.3042 34.3796C34.3198 35.5252 34.3474 35.8502 34.4495 36.0888C34.5606 36.3484 34.5812 36.7989 34.6222 39.8643C34.6684 43.3117 34.6673 43.3486 34.5119 43.7192C34.4256 43.9248 34.2301 44.2732 34.0775 44.4932C33.9249 44.7132 33.618 45.1566 33.3956 45.4786C33.1732 45.8007 32.7275 46.3734 32.4052 46.7514C31.806 47.4543 31.1515 48.5796 31.0537 49.0753C30.9688 49.5058 30.935 49.5844 30.8345 49.5844C30.3306 49.5844 31.0984 47.8022 32.1212 46.5979C32.4418 46.2204 32.856 45.6823 33.0415 45.4023C33.2271 45.1223 33.4908 44.7622 33.6277 44.6022C33.7645 44.4422 33.9731 44.1103 34.0911 43.8645L34.3058 43.4177V40.4765C34.3058 38.8587 34.2842 37.5136 34.2577 37.4873C34.2312 37.4605 34.164 37.4768 34.1083 37.5232C33.8771 37.7141 33.8425 37.4886 33.9314 36.3668C33.9852 35.6881 33.9985 34.7563 33.9672 33.8576L33.9174 32.428H34.2832C34.5227 32.428 34.8362 32.3568 35.1906 32.2163C35.4884 32.0983 35.8533 31.9796 36.0016 31.9525C36.3557 31.8871 37.0775 31.3499 37.291 30.9917C37.9037 29.964 38.0782 29.6493 38.386 29.0167L38.7309 28.3077L38.7837 26.4167C38.8128 25.3766 38.8562 24.1671 38.8802 23.7288C38.9189 23.0198 38.9077 22.9035 38.7784 22.6742C38.5629 22.2921 38.1328 21.0965 38.0341 20.6052C37.9641 20.2567 37.8855 20.1096 37.6162 19.8233L37.2846 19.4708H36.3128C35.385 19.4708 35.3312 19.4789 35.1254 19.6511C35.0069 19.7503 34.8663 19.9385 34.8129 20.0693C34.7596 20.2001 34.5263 20.569 34.2945 20.889C33.7292 21.6694 33.7189 21.6801 33.6263 21.588C33.5215 21.4839 33.6467 21.2245 34.0864 20.6345C34.2802 20.3745 34.4935 20.0254 34.5606 19.8587C34.6352 19.6733 34.7882 19.4828 34.955 19.3679C35.2048 19.1958 35.3096 19.1766 36.2112 19.1375C37.3474 19.0883 37.4475 19.121 37.9492 19.7051C38.1709 19.9632 38.2649 20.1531 38.3272 20.4688C38.3728 20.6999 38.4719 21.0527 38.5472 21.2527C38.6226 21.4527 38.7052 21.69 38.7308 21.78C38.7564 21.87 38.808 21.9437 38.8455 21.9437C38.9335 21.9437 38.9335 21.68 38.8455 21.5164C38.808 21.4467 38.728 21.1133 38.6677 20.7757C38.5158 19.924 38.169 19.2535 37.6071 18.7253L37.1622 18.3071H36.0179H34.8736L34.4211 18.766C34.1632 19.0275 33.8316 19.4734 33.6501 19.8024C33.4194 20.2207 33.0792 20.6457 32.4165 21.3434C31.9132 21.8734 31.3589 22.4952 31.1846 22.7253C30.9001 23.101 30.3071 24.2154 30.1803 24.6128C30.1532 24.6975 30.0827 24.7852 30.0236 24.8078C29.8979 24.8558 27.911 24.7417 27.812 24.6809C27.7751 24.6582 27.7596 24.3198 27.7775 23.9281C27.8175 23.0538 27.6735 22.1217 27.335 21.0626C27.1229 20.3987 27.0006 20.1646 26.4612 19.3898C25.7868 18.4211 24.6272 17.2092 23.7734 16.5808L23.2979 16.2309L23.2785 14.2469L23.259 12.263L22.803 12.0485C22.5523 11.9305 22.2648 11.8333 22.1642 11.8324C21.7804 11.8291 21.1154 11.4331 20.4454 10.8093C20.0398 10.4317 19.6512 10.2496 18.9772 10.1214L18.3998 10.0115L15.9484 10.6027L13.4969 11.1938L12.7655 11.6369C10.9953 12.7094 10.0561 13.2158 9.8372 13.2158C9.71394 13.2158 9.58182 13.2466 9.5436 13.2841C9.38087 13.444 8.2268 13.7397 7.24329 13.8734C6.65998 13.9528 6.07213 14.0537 5.93695 14.0978C5.60846 14.2049 4.46057 15.238 4.18949 15.6705C3.93735 16.0728 3.50718 17.1949 3.34958 17.8614C3.26675 18.2118 3.25922 18.3756 3.31872 18.5325C3.38824 18.7157 3.37384 18.7645 3.19531 18.9498C3.0368 19.1143 3.00368 19.2014 3.04194 19.353C3.06879 19.4593 3.0567 19.6357 3.01516 19.7449C2.97362 19.8542 2.91947 20.5542 2.89488 21.3006L2.85017 22.6576L3.03056 22.8643L3.21095 23.071L4.40425 21.9013C5.5792 20.7497 5.60655 20.7285 6.18268 20.5265C6.50451 20.4136 6.92539 20.2433 7.11799 20.1479C7.6753 19.8722 7.74067 20.0155 7.38085 20.7243C7.18193 21.1161 7.15802 21.2245 7.19398 21.5709C7.21795 21.8016 7.20165 22.0316 7.15518 22.1195C7.00247 22.4083 5.78615 23.8125 5.45499 24.0824C4.85475 24.5715 5.06079 24.865 6.21929 25.1711C7.02154 25.3831 7.81417 25.7612 8.46117 26.2406C9.00586 26.644 9.09831 26.927 9.05848 28.0687C9.03852 28.64 8.98917 29.041 8.92156 29.1805C8.83528 29.3585 8.59375 29.5089 7.60898 29.9974L6.40214 30.5962H5.81701C5.25113 30.5962 5.21622 30.5871 4.75645 30.2878L4.28103 29.9785L4.25875 29.5926C4.24047 29.2757 4.21432 29.211 4.11246 29.2302C4.03964 29.2439 3.94708 29.3833 3.88824 29.5678C3.80164 29.8395 3.80321 29.9283 3.89977 30.2218C3.97143 30.4396 4.04676 30.551 4.10969 30.5324C4.65491 30.371 4.81147 30.5115 4.39331 30.7865C4.11566 30.9693 4.01351 31.1919 4.16467 31.2847C4.20129 31.3069 4.38684 31.2598 4.57705 31.1782C4.91794 31.0329 5.22869 31.0436 5.17666 31.1985C5.14749 31.2855 5.08354 31.3225 4.6467 31.5048C4.33947 31.6331 4.02499 32.0251 4.02499 32.2798C4.02499 32.3595 3.91075 32.66 3.77111 32.9476C3.46759 33.5726 3.22043 34.8259 3.22043 35.7399C3.22043 36.407 3.26191 36.5333 3.96187 37.9995C4.16676 38.4287 4.41148 38.9435 4.50568 39.1435C4.59987 39.3435 4.85928 39.818 5.08212 40.1981C5.30497 40.5781 5.5648 41.0539 5.65953 41.2554C5.85537 41.672 6.42272 42.4844 7.0037 43.1801C7.22086 43.4401 7.65878 43.9638 7.97687 44.3438C8.85198 45.3893 9.66377 46.4512 9.86751 46.8167C9.96783 46.9967 10.1223 47.2422 10.2108 47.3622C10.6165 47.9126 10.6649 48.1044 10.7469 49.4876C10.805 50.4688 10.8606 50.896 10.9642 51.1572C11.2064 51.7683 11.5542 52.4394 11.7191 52.614C11.9971 52.9082 12.8971 53.4196 13.5508 53.6549C13.8983 53.7798 14.2215 53.9289 14.2692 53.986C14.5891 54.3693 17.3374 53.6413 18.9094 52.7569C19.5717 52.3843 20.8639 51.1442 21.1253 50.6303C21.3278 50.2322 21.4867 50.1007 21.5541 50.2753C21.6447 50.5102 21.2293 51.1244 20.4253 51.9443C19.7559 52.627 19.5427 52.7951 18.9725 53.0904C18.0896 53.5477 17.1276 53.9126 16.0751 54.1899C15.6024 54.3144 15.2157 54.4523 15.2157 54.4963C15.2157 54.5769 15.7533 55.0546 16.2426 55.4087C16.5612 55.6392 17.073 56.3123 17.0086 56.416C16.914 56.5681 16.7566 56.4793 16.4985 56.1302C16.3524 55.9323 16.111 55.6958 15.962 55.6045C15.813 55.5131 15.4985 55.2625 15.2632 55.0477C15.0278 54.8329 14.6822 54.591 14.4952 54.5103C14.3082 54.4295 14.0893 54.3062 14.0089 54.2364C13.9284 54.1666 13.7066 54.0515 13.516 53.9809C13.2299 53.8749 13.1494 53.869 13.0553 53.947C12.8911 54.0825 12.9515 54.331 13.1605 54.3796C13.3013 54.4123 13.3929 54.557 13.6234 55.11C13.7815 55.4892 14.0209 56.131 14.1554 56.5363C14.4532 57.4331 14.7547 57.9854 15.2664 58.5713C15.6474 59.0076 15.7518 59.2541 15.5555 59.2541C15.3744 59.2541 14.5799 58.2771 14.2824 57.6886C14.1212 57.3695 13.9184 56.8718 13.8318 56.5826C13.4925 55.4491 13.0312 54.5993 12.7553 54.5993C12.7045 54.5993 12.5393 54.8202 12.3882 55.0902C12.2371 55.3602 11.9429 55.843 11.7344 56.163C11.2056 56.9745 10.8659 57.6064 10.646 58.1878C10.3708 58.9153 10.1812 59.2541 10.0494 59.2541C9.8821 59.2541 9.94418 58.9981 10.3329 58.0848C10.648 57.3446 11.1846 56.374 11.6548 55.6937C12.0631 55.103 12.4363 54.364 12.4363 54.146C12.4363 53.9909 12.4778 53.9203 12.5856 53.8923C12.8118 53.8335 12.73 53.72 12.2189 53.3833C11.4832 52.8987 11.3138 52.693 10.8983 51.781L10.5153 50.9402L10.4288 49.5341L10.3422 48.1279L10.0111 47.6361C9.8289 47.3656 9.59093 46.997 9.48223 46.817C9.25059 46.4334 8.27249 45.1669 7.64552 44.4388C6.31557 42.8943 5.69727 42.0677 5.34525 41.3636C5.07483 40.8227 4.75716 40.2426 4.47651 39.777C4.34886 39.5652 4.24442 39.3782 4.24442 39.3615C4.24442 39.3445 4.0276 38.8799 3.76258 38.3284C2.91542 36.5651 2.91227 36.5553 2.91225 35.6909C2.91225 34.725 3.14921 33.4866 3.44532 32.9048C3.63204 32.5379 3.65871 32.4083 3.65477 31.8865C3.65194 31.5577 3.62658 31.0541 3.59769 30.7675L3.5451 30.2464L3.00149 29.6477C2.4754 29.0684 2.45635 29.0344 2.41054 28.5943C2.3796 28.2969 2.30578 28.0592 2.19732 27.9077C2.1061 27.7804 1.9176 27.4088 1.77844 27.0822C1.56253 26.5754 1.52944 26.4236 1.55277 26.0465C1.58251 25.5658 1.66278 25.3825 2.40198 24.1068C2.65102 23.677 2.85478 23.2801 2.85478 23.2248C2.85478 23.1694 2.80557 23.0835 2.74541 23.0338C2.68524 22.9842 2.59775 22.8165 2.55097 22.6613C2.46523 22.3767 2.39121 22.3149 2.30402 22.4552C2.21377 22.6004 2.06713 22.3818 2.01964 22.0312C1.89307 21.0967 1.90386 21.1268 1.71202 21.1746C1.46335 21.2367 1.41545 21.0564 1.59861 20.7477C1.76197 20.4723 1.86777 19.9117 1.778 19.797C1.74672 19.757 1.65525 19.6882 1.5748 19.6441C1.36967 19.5317 1.35187 19.2839 1.53768 19.1275C1.70666 18.9852 2.12336 18.3029 2.12336 18.1685C2.12336 18.1168 2.05679 18.1016 1.94849 18.1287C1.674 18.1972 1.65211 18.0346 1.8983 17.7558C2.23665 17.3726 2.18793 17.2248 1.78606 17.4154C1.59048 17.5081 1.51765 17.5145 1.44792 17.4452C1.37819 17.3759 1.37833 17.3259 1.44865 17.2132C1.49792 17.1342 1.57814 17.0056 1.6269 16.9274C1.76857 16.7003 1.63738 16.6712 1.39307 16.8756C1.17839 17.0552 0.953109 17.0691 0.953109 16.9027C0.953109 16.8595 1.00597 16.6145 1.07064 16.3582C1.2058 15.8223 1.13643 15.6386 0.884417 15.8654C0.697862 16.0333 0.514259 15.963 0.514259 15.7237C0.514259 15.5589 0.496893 15.5462 0.366464 15.6157C0.285175 15.6589 0.186432 15.6746 0.147039 15.6502C0.107391 15.6259 0.0746269 15.243 0.0736574 14.7923C0.0729344 14.3446 0.0475102 13.8638 0.017636 13.7237C-0.0122381 13.5837 -0.0032401 12.9295 0.0376701 12.2698C0.099949 11.264 0.130938 11.0668 0.229393 11.0482C0.293992 11.0361 0.401692 11.1094 0.468788 11.2112C0.658148 11.4986 0.724873 11.4346 0.748485 10.9429C0.770136 10.492 0.772036 10.4884 1.08111 10.3192C1.33563 10.1798 1.39196 10.1109 1.39196 9.93878C1.39196 9.70676 1.55825 9.57802 1.85794 9.57802C2.01097 9.57802 2.04473 9.53927 2.06389 9.34165C2.08625 9.11113 2.09637 9.10474 2.47081 9.0833C2.86173 9.06095 2.92099 9.01837 2.77013 8.86832C2.60441 8.70353 2.83944 8.55978 3.27457 8.55978C3.71372 8.55978 3.70725 8.57309 3.50739 8.07954C3.36333 7.72379 3.44961 7.61426 3.87392 7.61426C4.16035 7.61426 4.25572 7.58386 4.31506 7.47356C4.43102 7.2581 4.40961 7.18678 4.16133 6.96129C3.89573 6.72006 3.91773 6.54968 4.22311 6.48301C4.61208 6.39807 4.62212 6.39033 4.54025 6.23822C4.36218 5.90735 4.42753 5.85322 4.93938 5.90774C5.33087 5.94938 5.4148 5.93965 5.4148 5.85213C5.4148 5.7937 5.34752 5.68529 5.26529 5.61129C4.99589 5.36885 5.10619 5.1944 5.63422 5.02785C6.10041 4.88081 6.11036 4.87234 6.14622 4.59146L6.18277 4.30502L6.58506 4.26688C6.89679 4.23741 7.07088 4.16832 7.35852 3.9601C7.56267 3.81232 7.76664 3.61081 7.81178 3.5123C7.86921 3.38701 7.98034 3.3153 8.18159 3.27362C8.40195 3.22799 8.52777 3.13758 8.71883 2.88757C8.85606 2.70801 9.0711 2.49222 9.1967 2.40805C9.3223 2.32388 10.0418 2.05197 10.7956 1.80382C11.5494 1.55566 12.2351 1.31883 12.3195 1.27751C12.4039 1.2362 12.6046 1.057 12.7655 0.879292C13.0324 0.584532 13.1223 0.538792 13.7895 0.357885C14.4722 0.172781 14.6208 0.15937 16.0204 0.156423C16.9961 0.154462 17.653 0.120208 17.9013 0.0586836C18.2594 -0.0300707 18.2969 -0.0259747 18.5104 0.125226C18.7611 0.302702 18.4204 0.300142 21.8977 0.150439L22.9476 0.105199L23.5251 0.362592C24.357 0.733427 24.6718 0.800725 25.3143 0.745051C26.0012 0.685572 26.6902 0.881955 27.1161 1.25868C27.6291 1.71254 29.1037 2.32527 29.9539 2.43785C31.0245 2.57961 32.2049 3.24632 32.5515 3.90497C32.6903 4.16876 33.5004 5.10856 33.7276 5.26933C33.7987 5.31966 33.9271 5.54878 34.0129 5.77845C34.1946 6.265 34.6275 7.07746 34.8167 7.28702C34.889 7.36703 35.1474 7.71768 35.3911 8.06626C35.8621 8.7399 36.0463 9.17146 36.1141 9.75989C36.146 10.0371 36.216 10.1903 36.4083 10.4043C36.6998 10.7288 37.01 11.3504 37.0121 11.6146C37.0135 11.814 37.1568 12.3079 37.328 12.7055C37.3883 12.8456 37.4753 13.3529 37.5213 13.8329C37.5694 14.3344 37.6975 15.035 37.8226 15.4798C38.0215 16.1876 38.041 16.359 38.05 17.48C38.0594 18.6428 38.0685 18.7153 38.2249 18.8878C38.4978 19.1887 38.9012 20.1281 38.9861 20.6607C39.0299 20.9357 39.1139 21.2532 39.1726 21.3662C39.3274 21.6638 39.3252 24.1228 39.1698 24.5609C39.0841 24.8025 39.0601 25.2481 39.0601 26.599V28.3278L38.695 29.1053C38.3618 29.8149 38.1783 30.1473 37.59 31.1068C37.4094 31.4015 37.3933 31.4815 37.429 31.9104C37.4668 32.3651 37.2777 33.7189 37.0838 34.381C37.0152 34.6152 36.7854 36.4885 36.6468 37.9435C36.5718 38.732 36.2416 39.559 35.8773 39.871L35.6225 40.0892L35.6985 41.9802C35.8186 44.9662 36.1784 47.7015 36.3539 46.962C36.3775 46.8626 36.4481 46.7715 36.5108 46.7595C36.6388 46.7353 36.8403 47.3312 37.378 49.3261C37.5505 49.9662 37.9338 51.1358 38.2296 51.9252C38.5255 52.7147 38.7675 53.383 38.7675 53.4105C38.7675 53.4379 38.936 53.8311 39.1419 54.2841L39.5162 55.1077L39.4364 56.6536C39.352 58.2866 39.2603 59.0015 38.9904 60.1269C38.7704 61.0446 38.7874 60.9996 38.6601 60.9996C38.5805 60.9996 38.5481 60.9247 38.5481 60.7403L38.5481 60.744ZM7.35786 29.7661C8.0643 29.4239 8.52516 29.156 8.59832 29.045C8.67498 28.9286 8.70702 28.7482 8.69217 28.5166L8.6696 28.1648L7.68219 28.1718C7.13912 28.1718 6.57874 28.2165 6.43691 28.263C6.27839 28.3154 5.94088 28.586 5.56083 28.9659C5.14689 29.3797 4.88769 29.5839 4.77641 29.5839C4.49609 29.5839 4.5879 29.7832 4.99325 30.0547C5.3233 30.2757 5.43557 30.3112 5.80504 30.3112C6.18965 30.3112 6.34956 30.255 7.35784 29.7668L7.35786 29.7661ZM3.61931 29.3256C3.88404 28.6956 5.23524 27.4583 5.94099 27.1996C6.23204 27.0929 6.59864 27.047 7.40712 27.0158C8.00004 26.9928 8.517 26.955 8.55592 26.9308C8.69199 26.8472 8.5408 26.6723 8.05859 26.3556C7.34065 25.8841 6.92223 25.6947 6.12161 25.4783L5.40216 25.2839L5.0062 25.5876C4.78843 25.7547 4.61024 25.9151 4.61024 25.944C4.61024 25.9727 4.39712 26.1522 4.13665 26.3424C3.61092 26.7262 3.32704 27.1258 3.07078 27.8428C2.97888 28.0999 2.85978 28.3619 2.80613 28.425C2.63201 28.63 2.6993 28.8521 3.04771 29.2226C3.23424 29.4208 3.41482 29.5831 3.449 29.5831C3.48316 29.5831 3.55983 29.4672 3.61931 29.3256ZM44.7081 57.9304C44.6669 57.8801 44.5947 57.6922 44.5476 57.5122C44.4448 57.1188 43.8949 56.1302 43.7789 56.1302C43.7336 56.1302 43.3363 55.8648 42.896 55.5404C42.4557 55.2159 41.8321 54.7995 41.5103 54.615C40.6172 54.103 39.7803 53.1907 39.1307 52.0209C38.9974 51.7809 38.6939 51.38 38.4562 51.13C38.0409 50.6933 37.9746 50.5382 38.1747 50.4718C38.3118 50.4261 39.1087 51.3041 39.35 51.7663C39.9239 52.8656 40.7921 53.8268 41.6639 54.3278C41.9817 54.5105 42.5709 54.9013 42.9732 55.1963C43.3754 55.4915 43.7925 55.7714 43.9 55.8184C44.1527 55.9288 44.6337 56.7326 44.8595 57.4218C44.9546 57.7121 45.0161 57.9656 44.9963 57.9854C44.9306 58.0507 44.7842 58.0226 44.7081 57.9305V57.9304ZM11.2065 48.5116C11.1639 48.4016 11.1081 48.1971 11.0826 48.0571C10.9885 47.5415 10.5106 46.2537 10.1378 45.5113C9.40397 44.0501 8.85528 43.2953 7.49485 41.8756C6.71205 41.0585 6.40886 40.5611 6.25746 39.8455C6.19624 39.5562 6.10906 39.2506 6.06366 39.1662C5.95934 38.9723 6.01769 37.8224 6.14374 37.5882C6.31264 37.2744 6.84057 36.6386 6.93251 36.6383C7.10308 36.6383 7.02496 36.9492 6.7793 37.2488C6.4363 37.6672 6.39144 37.7757 6.33982 38.311C6.3046 38.676 6.32738 38.8888 6.43966 39.2448C6.51964 39.4983 6.58508 39.7795 6.58508 39.8696C6.58508 40.2004 7.03576 40.9384 7.51502 41.3922C7.77426 41.6376 8.13926 42.0348 8.32614 42.2748C8.51301 42.5149 8.80218 42.8585 8.96873 43.0385C9.3538 43.4547 9.9401 44.3879 10.431 45.366C11.1109 46.7206 11.6835 48.7116 11.3932 48.7116C11.3331 48.7116 11.2491 48.6216 11.2065 48.5116ZM22.3106 47.885C22.3106 47.8301 22.428 47.4458 22.5715 47.0304C22.715 46.615 22.8989 46.0459 22.9802 45.7659C23.0616 45.4859 23.2268 44.9325 23.3474 44.5362C23.468 44.1398 23.6755 43.3543 23.8086 42.7906C24.0643 41.7074 24.4634 40.3113 24.7255 39.5837C24.868 39.1879 24.8785 39.0527 24.8386 38.129C24.7899 37.0048 24.7274 36.5257 24.4552 35.194C24.3221 34.5429 24.2936 34.2735 24.3516 34.2157C24.4918 34.0763 24.5801 34.2576 24.7555 35.0464C25.0357 36.306 25.1646 37.3527 25.1638 38.3613C25.1632 39.1909 25.1391 39.3879 24.9858 39.8159C24.7172 40.5664 24.3247 41.9545 24.1056 42.9294C23.9977 43.4095 23.8164 44.0968 23.7027 44.4568C23.5889 44.8168 23.4406 45.3241 23.373 45.5842C23.2167 46.1858 22.765 47.5227 22.6297 47.7843C22.5223 47.9919 22.3106 48.0587 22.3106 47.885ZM20.6283 47.7075C20.6283 47.564 21.0015 46.9423 21.1381 46.8584C21.185 46.8296 21.3972 46.5719 21.6097 46.286C21.9229 45.8646 22.0609 45.5763 22.337 44.7664C22.7953 43.4221 22.8408 42.9159 22.791 39.7154C22.7541 37.3392 22.7397 37.1172 22.5965 36.7296C22.5114 36.4992 22.4243 36.2339 22.4029 36.1399C22.3344 35.8396 22.6109 35.9859 22.7946 36.3472C23.0979 36.9438 23.1324 37.4201 23.1032 40.6019L23.0757 43.584L22.6802 44.7478C22.281 45.9221 22.0544 46.337 21.4678 46.9661C21.3373 47.1061 21.144 47.3597 21.0382 47.5297C20.8404 47.8477 20.6283 47.9397 20.6283 47.7075H20.6283ZM11.8594 45.7717C11.6024 45.6746 11.3504 45.5517 11.2994 45.4987C11.2484 45.4458 10.9359 45.0096 10.605 44.5295C10.2741 44.0495 9.79485 43.3763 9.54006 43.0335C9.12254 42.4717 9.08101 42.3845 9.11926 42.15C9.15891 41.9073 9.1471 41.8868 8.94314 41.8423C8.57237 41.7612 8.42103 41.5265 8.32723 40.8865C8.22372 40.1803 8.25975 40.0241 8.60828 39.6683C8.93662 39.333 10.7414 38.4431 11.4318 38.2759C11.6826 38.2151 12.1841 38.0845 12.5461 37.9853C13.2885 37.782 14.0498 37.5947 15.072 37.364C15.6941 37.2235 15.9304 37.2097 17.2662 37.235C18.924 37.2664 19.0615 37.2958 20.3076 37.8813C21.0119 38.2123 21.31 38.5184 21.4738 39.0788C21.62 39.579 21.5778 39.9826 21.2765 40.9657C20.9005 42.1925 20.2723 43.3281 19.5565 44.075C19.1127 44.5381 18.0077 45.0978 16.8738 45.4339C15.7812 45.7577 14.9149 45.8783 13.3873 45.9195C12.4031 45.9463 12.2931 45.9359 11.8594 45.7717ZM14.8135 45.5135C16.211 45.3457 17.3567 45.0263 18.3464 44.5288C18.9636 44.2186 19.7502 43.6039 19.7508 43.4312C19.751 43.3952 19.8825 43.1694 20.0432 42.9294C20.2038 42.6894 20.3354 42.4206 20.3355 42.3321C20.3357 42.2435 20.4029 42.0018 20.4848 41.795C20.5668 41.5881 20.623 41.3863 20.6097 41.3465C20.5963 41.3066 20.34 41.5364 20.04 41.8569C19.4755 42.4603 19.5182 42.4333 17.6991 43.3319C17.4759 43.4421 16.7353 43.7229 16.0534 43.956L14.8135 44.3796L13.6271 44.4077L12.4406 44.4359L11.9603 44.1687C11.371 43.841 10.595 43.1326 10.2647 42.6209C10.0465 42.2828 9.98966 42.239 9.76882 42.239C9.63163 42.239 9.50153 42.2678 9.4797 42.3025C9.45791 42.3371 9.55586 42.5172 9.69743 42.7015C9.83901 42.8859 10.3145 43.5522 10.754 44.1822L11.5531 45.3277L12.0131 45.4867C12.604 45.691 13.2822 45.6975 14.8135 45.5141V45.5135ZM13.241 44.0247C13.241 44.007 13.2081 43.9724 13.1678 43.9477C13.1276 43.9235 13.0947 43.9372 13.0947 43.9797C13.0947 44.0222 13.1276 44.0567 13.1678 44.0567C13.2081 44.0567 13.241 44.0424 13.241 44.0247V44.0247ZM13.6664 43.8148C13.683 43.6756 13.6564 43.6203 13.5727 43.6203C13.4342 43.6203 13.3536 43.7919 13.4161 43.9537C13.4821 44.125 13.6399 44.0374 13.6664 43.8148ZM14.36 43.9594C14.4254 43.79 14.3014 43.3678 14.1795 43.3444C13.9361 43.2974 13.693 43.8274 13.8749 44.0083C13.9625 44.0953 14.3215 44.0593 14.36 43.9593V43.9594ZM15.0197 43.8387C15.0526 43.8093 15.069 43.658 15.0562 43.5026C15.035 43.2452 15.0128 43.2184 14.8029 43.1981C14.5787 43.1765 14.5722 43.1844 14.5465 43.506C14.532 43.6875 14.5313 43.8693 14.5451 43.9099C14.5706 43.9862 14.9129 43.9347 15.0199 43.8387H15.0197ZM16.0413 43.2889C16.0129 42.9173 15.9674 42.8708 15.6776 42.9175C15.299 42.9783 15.2051 43.1734 15.3596 43.5774L15.4302 43.762L15.7436 43.6277C16.0148 43.5114 16.0549 43.4658 16.0413 43.2889ZM16.8579 43.1767C17.1429 42.907 16.7902 42.4664 16.4038 42.6094C16.1443 42.7055 16.0461 42.992 16.1951 43.2182C16.2938 43.3681 16.3557 43.3949 16.5163 43.3578C16.6257 43.333 16.7794 43.251 16.8579 43.1767ZM17.9059 42.7558C18.2566 42.5779 18.2804 42.4992 18.0556 42.2613C17.8552 42.0492 17.8087 42.0508 17.5069 42.2796C17.1556 42.5461 17.0041 42.7935 17.1127 42.9236C17.2122 43.0428 17.4314 42.9965 17.9059 42.7557V42.7558ZM18.8406 42.352C18.9759 42.2523 18.9766 42.2412 18.8546 42.1183C18.7395 42.0021 18.7153 42.0003 18.6142 42.1006C18.5506 42.164 18.5223 42.2653 18.5489 42.3343C18.6065 42.4835 18.6577 42.4866 18.8407 42.352H18.8406ZM11.4573 42.0779C11.5833 42.2464 11.8064 42.1113 11.838 41.8479L11.8613 41.6538L12.0426 41.7957C12.2139 41.9297 12.2452 41.9315 12.6045 41.8271C12.8138 41.7663 13.0772 41.6722 13.1899 41.6176C13.3026 41.5627 13.4427 41.5365 13.5013 41.5588C13.6767 41.6259 14.1169 41.5124 14.269 41.3612C14.3473 41.2834 14.4112 41.1379 14.4112 41.038V40.8561L14.5586 41.0027C14.6664 41.1098 14.7598 41.1369 14.9061 41.1031C15.2281 41.0289 15.4352 40.866 15.4352 40.6871C15.4352 40.596 15.4714 40.4855 15.5157 40.4415C15.5732 40.384 15.5742 40.2918 15.5192 40.1178C15.4769 39.9838 15.4035 39.7188 15.3561 39.5287C15.2882 39.2565 15.238 39.1833 15.1195 39.1833C14.9167 39.1833 14.6306 39.462 14.6306 39.6598C14.6306 39.7479 14.5781 39.8634 14.5139 39.9163C14.4315 39.9842 14.4081 40.0884 14.4345 40.2707C14.455 40.4127 14.4465 40.5943 14.4157 40.6742C14.3597 40.8197 14.3597 40.8197 14.3184 40.6742C14.2957 40.5943 14.256 40.3738 14.2302 40.1845C14.1981 39.9496 14.1328 39.8051 14.0249 39.7299C13.8109 39.5809 13.5622 39.591 13.4462 39.7534C13.3936 39.827 13.2785 39.9253 13.1902 39.9719C13.0736 40.0334 13.0237 40.1362 13.0074 40.3484C12.9779 40.7312 12.8722 40.7466 12.7702 40.383C12.6952 40.1158 12.6659 40.0902 12.411 40.0692C12.0068 40.0359 11.9244 40.1398 11.9244 40.6828C11.9244 40.938 11.8975 41.1467 11.8647 41.1467C11.8318 41.1467 11.7316 41.0167 11.6418 40.8579C11.552 40.6991 11.4458 40.5491 11.4057 40.5244C11.2729 40.4428 11.1198 40.6513 11.116 40.9192C11.1125 41.1802 11.111 41.1813 10.9973 41.0194C10.9342 40.9294 10.8329 40.8557 10.7722 40.8557C10.6203 40.8557 10.6892 41.2471 10.9349 41.7809C11.1103 42.162 11.1328 42.1832 11.2442 42.0724C11.3555 41.9617 11.371 41.962 11.4572 42.0796L11.4573 42.0779ZM11.2343 41.5325C11.1946 41.4288 11.203 41.4205 11.2752 41.492C11.3252 41.5417 11.3477 41.5999 11.3252 41.6223C11.3027 41.6445 11.2618 41.604 11.2343 41.5326L11.2343 41.5325ZM9.09165 40.9371C9.03731 40.1493 9.08279 40.0078 9.4199 39.9147C9.57044 39.8735 9.96731 39.8389 10.3018 39.8387C10.6364 39.8387 10.9783 39.8015 11.0617 39.7576C11.1845 39.6919 12.5082 39.2204 14.1187 38.668C14.2595 38.6196 14.565 38.501 14.7976 38.4041C15.9625 37.9189 16.2295 37.8571 17.3735 37.8077C18.3239 37.7666 18.4431 37.7483 18.2647 37.672C17.9467 37.5354 15.7501 37.5537 15.0695 37.6988C14.2947 37.8635 13.458 38.0669 12.6924 38.2766C12.3304 38.3757 11.8289 38.5065 11.5781 38.5672C10.874 38.7376 9.07011 39.6295 8.79156 39.9449C8.52985 40.2414 8.53386 40.2177 8.63774 40.8544C8.72141 41.3672 8.80112 41.5115 9.0008 41.5115C9.11825 41.5115 9.12728 41.4539 9.09165 40.9374V40.9371ZM16.496 40.6554C16.7049 40.5033 16.9712 39.9913 16.9712 39.7421C16.9712 39.4802 16.7143 38.9682 16.5243 38.8515C16.3944 38.7716 15.5809 39.635 15.5841 39.8493C15.5883 40.1127 15.7457 40.3377 16.0615 40.5306C16.3836 40.7274 16.3934 40.7302 16.496 40.6554ZM17.988 40.0855C18.1597 39.8683 18.2504 39.4809 18.1877 39.2323C18.1603 39.1239 18.0368 39.0134 17.8482 38.9288L17.5518 38.7959L17.2981 39.0405C16.9606 39.3657 16.9633 39.6032 17.3089 39.9836C17.6171 40.3229 17.7808 40.3474 17.988 40.0855H17.988ZM21.2135 39.6297C21.2135 39.3746 21.1716 39.1565 21.1061 39.0704C21.0078 38.9411 20.9986 38.9661 20.9974 39.3655C20.9966 39.6055 21.0158 39.8752 21.0399 39.9647C21.1166 40.2496 21.2134 40.0628 21.2134 39.6297H21.2135ZM19.0141 39.8801C19.1603 39.7252 19.1744 39.6584 19.1294 39.3328C19.086 39.0186 19.0446 38.9448 18.8592 38.8493C18.6585 38.7461 18.6285 38.7473 18.5005 38.8624C18.3953 38.9571 18.3609 39.0868 18.3609 39.3894C18.3609 40.0143 18.6688 40.2456 19.0141 39.8801ZM20.0756 39.6767C20.2379 39.4462 20.2164 39.1502 20.0209 38.9242C19.8597 38.7378 19.8467 38.735 19.7231 38.8578C19.645 38.9354 19.6092 39.0474 19.6326 39.1401C19.654 39.2247 19.6429 39.3397 19.6081 39.3957C19.5199 39.5377 19.6715 39.8382 19.8314 39.8382C19.9031 39.8382 20.013 39.7654 20.0756 39.6766L20.0756 39.6767ZM22.0683 40.6641C22.0407 40.6367 22.018 40.3449 22.018 40.0157C22.018 37.5962 21.4676 36.062 20.0662 34.5759C18.6154 33.0374 17.4044 32.1569 16.625 32.074C16.2046 32.0296 16.0547 31.9355 16.1743 31.7922C16.3364 31.5981 17.1086 31.7851 17.8045 32.1916C18.8065 32.7739 20.7754 34.7012 21.3438 35.6562C21.9957 36.7514 22.3427 38.3 22.2961 39.9051C22.2757 40.6046 22.2143 40.8093 22.0683 40.6641H22.0683ZM8.07799 36.5732C7.67282 36.3275 7.55564 36.1068 7.50023 35.4844C7.45588 34.9861 7.46895 34.8746 7.60242 34.6145C7.6866 34.4505 7.8258 34.251 7.91175 34.1714C7.99771 34.0918 8.12601 33.8697 8.19685 33.6777C8.26769 33.4859 8.44159 33.0505 8.58328 32.7105C8.81502 32.1545 9.29133 30.291 9.29133 29.9406C9.29133 29.7087 9.12267 29.7816 8.73011 30.1831C8.04463 30.8841 6.67112 33.187 6.39526 34.0978C6.20962 34.7107 5.99994 35.8502 5.99994 36.2461C5.99994 36.5979 5.98392 36.6381 5.84388 36.6381C5.69243 36.6381 5.68903 36.6172 5.72885 35.9289C5.78776 34.9113 6.06483 33.9244 6.57119 32.9288C7.52892 31.0456 8.66167 29.5604 9.22787 29.4455L9.47418 29.3958L9.49464 28.4727C9.51256 27.6655 9.49181 27.4707 9.33168 26.9205C9.2308 26.5745 9.02754 26.0484 8.87998 25.7515C8.68436 25.3578 8.63356 25.1898 8.69242 25.1313C8.89001 24.9348 9.2866 25.6594 9.65145 26.8835C9.91446 27.766 9.92456 28.0665 9.7324 29.2924C9.45065 31.0899 9.0478 32.6194 8.65 33.4018C8.4096 33.8747 8.34419 34.6211 8.51448 34.9485C8.66096 35.2302 8.66621 35.402 8.52833 35.402C8.37932 35.402 8.12106 35.0143 8.12106 34.7906C8.12106 34.6868 8.08929 34.6019 8.0505 34.6019C7.90942 34.6019 7.8285 34.8944 7.8285 35.4043C7.8285 35.8935 7.84241 35.9384 8.05565 36.1365C8.21396 36.2835 8.35807 36.3474 8.53108 36.3474C8.80861 36.3474 8.83203 36.3076 8.66356 36.1226C8.38979 35.8218 9.11058 35.7986 9.44276 36.0978C9.57327 36.2152 9.56073 36.4204 9.42308 36.4204C9.38343 36.4204 9.26733 36.4862 9.16504 36.5659C8.9217 36.7563 8.38532 36.7601 8.07804 36.5738L8.07799 36.5732ZM11.3539 36.1145C11.3056 36.0661 11.2662 35.9394 11.2662 35.832C11.2662 35.6815 11.3762 35.5434 11.7476 35.2282C12.0123 35.0035 12.3003 34.8048 12.3875 34.7867C13.5328 34.549 14.1638 34.5332 14.4154 34.7357C14.5201 34.8199 14.565 34.9136 14.5364 34.9878C14.4953 35.0942 14.4654 35.0953 14.234 34.999C13.9372 34.8757 13.5809 34.8633 13.1454 34.9611C12.9767 34.999 12.7235 35.0493 12.5827 35.073C12.4199 35.1005 12.1952 35.2364 11.9655 35.4465C11.6498 35.7353 11.6152 35.7945 11.6912 35.9154C11.739 35.9916 11.7781 36.087 11.7781 36.1276C11.7781 36.2302 11.4606 36.2201 11.3539 36.1145ZM14.9284 35.0079C14.8588 34.9245 14.9087 34.8546 15.1913 34.6401C15.663 34.282 15.7999 34.0562 15.8005 33.6354C15.8011 33.1945 15.5075 32.5888 15.245 32.4895C14.8885 32.3548 14.4399 32.405 14.1989 32.6067C14.076 32.7096 13.9418 32.7731 13.9008 32.7478C13.7533 32.6572 13.8305 32.4264 14.0638 32.261C14.368 32.0451 15.1314 32.0279 15.4739 32.2289C16.0843 32.5874 16.3625 33.7619 15.9761 34.3484C15.8534 34.5345 15.1678 35.1105 15.0689 35.1105C15.0389 35.1105 14.9757 35.0641 14.9284 35.0077V35.0079ZM33.9879 29.5336C33.9605 29.5061 33.9582 28.9581 33.983 28.3153C34.034 26.9802 33.9766 26.7104 33.5379 26.2276C33.2959 25.9613 33.2035 25.6396 33.3442 25.5532C33.4352 25.4972 34.008 26.2204 34.1742 26.601C34.2928 26.8729 34.3178 27.104 34.3218 27.9648C34.3246 28.5348 34.3424 29.0012 34.3618 29.0012C34.3812 29.0012 34.6002 28.813 34.8485 28.583C35.0968 28.353 35.39 28.1178 35.5 28.0605C35.6762 27.9685 35.7136 27.9696 35.8146 28.0702C35.9187 28.1737 35.8911 28.2094 35.515 28.4576C35.2872 28.608 35.0031 28.8519 34.8837 28.9997C34.7642 29.1475 34.5398 29.3392 34.3849 29.4258C34.0723 29.6005 34.0588 29.6042 33.988 29.5338L33.9879 29.5336ZM14.777 27.9073C14.4062 27.8327 14.0976 27.5451 14.133 27.3073C14.1675 27.0755 14.318 27.0788 14.4404 27.3142C14.5737 27.5706 14.7677 27.6195 15.652 27.6195C16.2661 27.6195 16.3158 27.6069 17.0143 27.2661C17.413 27.0718 17.9153 26.774 18.1304 26.6043C18.3896 26.3997 18.5462 26.3201 18.5943 26.3679C18.7947 26.5672 18.1966 27.052 17.0832 27.5927C16.3996 27.9248 16.3152 27.9477 15.7301 27.9603C15.3869 27.968 14.958 27.9442 14.777 27.9079V27.9073ZM36.5732 27.5878C36.5732 27.5304 36.6714 27.3259 36.7914 27.1332C37.1982 26.4801 37.3778 25.7999 37.3778 24.9119C37.3778 24.3374 37.3466 24.0608 37.2637 23.9014C37.134 23.652 37.1482 23.3645 37.2902 23.3645C37.3425 23.3645 37.4658 23.5609 37.5641 23.8009C37.9312 24.6971 37.7472 26.0951 37.1116 27.2374C36.9356 27.5538 36.8153 27.692 36.716 27.692C36.6375 27.692 36.5733 27.6451 36.5733 27.5878H36.5732ZM37.3878 27.5221C37.3282 27.4505 37.3757 27.3198 37.5792 26.9963L37.8501 26.5657L37.9119 25.2817C37.9714 24.0467 37.9677 23.986 37.8161 23.6906C37.6967 23.4578 37.6792 23.3634 37.7436 23.3011C37.8075 23.2394 37.8833 23.2825 38.047 23.4734L38.2654 23.728L38.2409 25.1099C38.2186 26.3711 38.202 26.5204 38.0515 26.8191C37.6874 27.5413 37.537 27.7007 37.3879 27.5221H37.3878ZM11.4099 26.7282C11.2056 26.3991 11.171 26.2255 11.2081 25.7157C11.2313 25.3965 11.2777 25.245 11.3737 25.1752C11.5794 25.0256 11.6214 25.1092 11.5782 25.5823C11.5505 25.8871 11.5761 26.138 11.6643 26.416C11.8438 26.9836 11.6875 27.1754 11.4099 26.7282ZM13.9724 26.3076C13.9724 25.5593 14.8018 24.7844 15.6059 24.7815C16.022 24.7801 16.1975 24.6675 15.9069 24.5886C15.1543 24.3843 14.4363 24.6575 14.0973 25.2769C13.8441 25.7395 13.7005 25.8663 13.6317 25.6879C13.5549 25.4889 13.9559 24.7954 14.2848 24.5585C14.4412 24.4458 14.6871 24.3149 14.8312 24.2676C15.2069 24.1443 15.9659 24.2275 16.5689 24.458C16.8505 24.5656 17.3113 24.681 17.5929 24.7146C17.8745 24.7481 18.1924 24.7967 18.2993 24.8226C18.4501 24.8591 18.7212 24.7583 19.5062 24.3737C20.3235 23.9734 20.6009 23.796 20.9454 23.4534C21.1802 23.22 21.4106 23.0417 21.4574 23.0573C21.631 23.1148 21.5323 23.3336 21.1619 23.7125C20.8527 24.0289 20.5674 24.2073 19.6416 24.6628C18.8054 25.0741 18.4846 25.2686 18.4371 25.3929C18.3755 25.554 18.3264 25.5648 17.4341 25.6149C16.3614 25.6751 15.5928 25.865 14.7856 26.2693C14.1306 26.5973 13.9724 26.6048 13.9724 26.3077V26.3076ZM19.0349 26.0482C18.8382 25.9037 19.0032 25.808 19.5716 25.7367C19.8511 25.7017 20.1994 25.6233 20.3456 25.5623C20.687 25.4201 21.835 25.3193 21.9012 25.4257C21.9737 25.5424 21.6998 25.6554 21.3463 25.6546C21.1726 25.6546 20.7837 25.7341 20.482 25.8321C19.6971 26.0871 19.1906 26.1627 19.0349 26.0482ZM19.2651 25.3282C19.1963 25.1499 19.2824 25.1078 20.0798 24.9312C20.5116 24.8355 20.993 24.6712 21.255 24.53C21.8012 24.2356 22.4321 24.1246 22.5038 24.3104C22.5642 24.4667 22.4168 24.5618 22.112 24.5633C21.9826 24.5639 21.6699 24.6757 21.4171 24.8118C21.152 24.9545 20.6634 25.1253 20.2626 25.2155C19.8804 25.3015 19.51 25.3888 19.4394 25.4095C19.362 25.4326 19.2928 25.3997 19.2651 25.3282ZM33.7207 25.0516C33.7207 24.9537 33.767 24.7433 33.8235 24.584C33.88 24.4247 33.95 24.0739 33.979 23.8045C34.0157 23.464 34.0795 23.2595 34.1884 23.1336L34.345 22.9526L35.002 23.2935C35.3633 23.481 35.6853 23.6502 35.7174 23.6695C35.7495 23.6888 35.7391 23.7485 35.6943 23.8023C35.6261 23.8839 35.5637 23.8827 35.3147 23.7952C35.1508 23.7377 34.9053 23.6222 34.7691 23.5385C34.4319 23.3312 34.3069 23.3958 34.3014 23.7801C34.2943 24.2575 34.0028 25.1759 33.8487 25.2052C33.755 25.223 33.7207 25.1818 33.7207 25.0515V25.0516ZM8.04837 23.6564C8.00788 23.5506 7.97477 23.4157 7.97477 23.3567C7.97477 23.2978 7.82207 22.959 7.63545 22.6039C7.3113 21.9872 7.2644 21.7254 7.47877 21.7297C7.6302 21.7323 8.27154 23.1117 8.28883 23.4714C8.30641 23.8373 8.16047 23.9496 8.04837 23.6564ZM8.94126 23.4916C8.71144 22.8807 8.49593 21.9837 8.45639 21.4733C8.41626 20.9552 8.43067 20.8506 8.5878 20.5185C8.78716 20.0973 8.87495 20.0157 8.98599 20.1488C9.04117 20.2149 9.02283 20.3302 8.92111 20.556C8.71502 21.0137 8.73241 21.7578 8.96624 22.4859C9.21705 23.267 9.27377 23.6916 9.12727 23.6916C9.06633 23.6916 8.98263 23.6016 8.94125 23.4916H8.94126ZM19.4205 23.1566C19.2199 23.0223 18.8479 22.8371 18.5938 22.745C18.1446 22.5822 18.084 22.5789 16.3947 22.6233L14.6574 22.6689L14.1504 22.3699C13.28 21.8564 12.6471 21.6556 11.8983 21.6553C11.167 21.6553 9.99641 21.471 9.74846 21.3173C9.47939 21.1505 9.5497 20.9249 10.0776 20.2612C10.908 19.217 11.4263 18.964 12.7345 18.964C13.642 18.964 13.8087 19.0205 14.5446 19.5777C15.1736 20.054 15.482 20.1277 16.8455 20.1277H18.0103L19.2133 20.7217C19.985 21.1026 20.4835 21.3949 20.6035 21.5367C20.7788 21.7439 20.7874 21.79 20.7401 22.2701C20.6809 22.8727 20.5005 23.2092 20.1766 23.3215C19.8526 23.4338 19.8261 23.428 19.4205 23.1565V23.1566ZM20.0432 23.0007C20.0432 22.9406 20.0103 22.8915 19.97 22.8915C19.9298 22.8915 19.8969 22.9406 19.8969 23.0007C19.8969 23.0607 19.9298 23.1098 19.97 23.1098C20.0102 23.1098 20.0432 23.0607 20.0432 23.0007ZM20.5005 22.3928C20.5435 22.2294 20.427 21.9991 20.3313 22.0579C20.2935 22.0811 20.2626 22.1963 20.2626 22.314C20.2626 22.5542 20.4424 22.6137 20.5005 22.3928H20.5005ZM14.777 20.2732C14.777 20.2332 14.7441 20.2004 14.7038 20.2004C14.6636 20.2004 14.6307 20.2332 14.6307 20.2732C14.6307 20.3132 14.6636 20.3459 14.7038 20.3459C14.744 20.3459 14.777 20.3132 14.777 20.2732ZM13.753 19.5095C13.753 19.4495 13.722 19.4004 13.6842 19.4004C13.5919 19.4004 13.5259 19.514 13.5843 19.5721C13.6667 19.654 13.753 19.622 13.753 19.5095L13.753 19.5095ZM13.3141 19.4125C13.3141 19.3178 13.2272 19.2548 13.1565 19.2983C13.0808 19.3448 13.146 19.4732 13.2453 19.4732C13.2832 19.4732 13.3141 19.4459 13.3141 19.4126L13.3141 19.4125ZM21.9063 22.6473C21.8269 22.593 21.6439 22.527 21.4994 22.5007C21.1961 22.4455 20.8815 22.153 20.9459 21.9861C21.0057 21.831 21.1648 21.8448 21.3232 22.0187C21.396 22.0987 21.541 22.1652 21.6454 22.1665C21.7497 22.1678 21.9257 22.248 22.0363 22.3448C22.3669 22.6342 22.2578 22.8879 21.9063 22.6472V22.6473ZM4.00226 20.8808C3.97456 20.8533 3.95199 20.6768 3.95199 20.4885C3.95199 20.1572 3.96957 20.1296 4.49826 19.6303C4.7987 19.3465 5.21835 19.027 5.43082 18.9204C5.64328 18.8138 6.08042 18.57 6.40225 18.3787C6.96301 18.0454 7.09559 17.9908 7.29824 18.0099C7.48338 18.0274 7.38219 18.2379 7.14036 18.3383C7.00324 18.3953 6.7075 18.5587 6.48315 18.7014C6.2588 18.8441 5.87809 19.0598 5.63712 19.1808C5.39614 19.3017 4.99549 19.5909 4.74679 19.8233C4.36131 20.1836 4.28821 20.2927 4.2513 20.5628C4.2101 20.8643 4.11184 20.9897 4.00228 20.8808H4.00226ZM7.36525 19.2792C7.3384 19.2525 7.31647 19.1871 7.31647 19.1337C7.31647 19.0629 7.44422 19.0368 7.79041 19.0368C8.31721 19.0368 8.51467 18.9737 9.73015 18.4173C10.5521 18.041 11.0803 17.9043 11.2675 18.0193C11.4574 18.1361 11.2786 18.2877 10.898 18.3325C10.6767 18.3586 10.3016 18.4882 10.0036 18.6415C8.993 19.1616 8.49298 19.3271 7.93208 19.3274C7.64713 19.3274 7.39205 19.3059 7.36523 19.2792H7.36525ZM9.62245 17.949C9.53557 17.8092 9.86678 17.6719 10.937 17.4042C12.6292 16.9808 12.729 16.9684 12.729 17.1807C12.729 17.2961 12.5016 17.3762 11.5953 17.58C11.2332 17.6614 10.7066 17.7924 10.425 17.8711C9.84582 18.033 9.68444 18.0487 9.62245 17.949Z" fill="black"/>
</svg>
