<svg width="54" height="54" viewBox="0 0 54 54" fill="none" xmlns="http://www.w3.org/2000/svg">
<path d="M19.3996 23.4618C20.4802 20.1356 18.6633 16.5688 15.3366 15.4879C12.0107 14.407 8.44371 16.2241 7.36276 19.5508C6.28202 22.877 8.09893 26.4438 11.4256 27.5246C14.7367 28.6006 18.3189 26.7876 19.3996 23.4618ZM12.4034 24.5155C10.7403 23.9751 9.83157 22.1919 10.372 20.5286C10.9119 18.8671 12.6942 17.9563 14.3589 18.4972C16.0221 19.0375 16.9309 20.8207 16.3905 22.4841C15.8513 24.1433 14.0628 25.0547 12.4034 24.5155Z" fill="black"/>
<path d="M21.6983 30.5369C18.8689 28.4811 14.915 29.1072 12.8591 31.9369C10.8034 34.7662 11.4292 38.7201 14.2591 40.776C17.0998 42.8398 21.0603 42.181 23.0983 39.376C25.154 36.5466 24.5281 32.5928 21.6983 30.5369ZM20.5385 37.5162C19.513 38.9276 17.5305 39.2415 16.119 38.2162C14.7042 37.1883 14.3911 35.2116 15.419 33.7966C16.4467 32.3823 18.4237 32.0688 19.8385 33.0966C21.2532 34.1245 21.5664 36.1014 20.5385 37.5162Z" fill="black"/>
<path d="M29.1373 30.5368C26.3079 32.5924 25.6814 36.5461 27.7373 39.376C29.7826 42.1908 33.7458 42.8325 36.5764 40.776C39.4058 38.7204 40.0325 34.7667 37.9764 31.9368C35.9209 29.1074 31.9672 28.4809 29.1373 30.5368ZM34.7167 38.2162C33.3052 39.2418 31.3226 38.9277 30.2972 37.5162C29.2693 36.1016 29.5823 34.1247 30.9971 33.0967C32.4118 32.0689 34.3887 32.3817 35.4167 33.7967C36.4446 35.2114 36.1316 37.1882 34.7167 38.2162Z" fill="black"/>
<path d="M31.4362 23.4617C32.5161 26.7853 36.0965 28.6015 39.4101 27.5246C42.7363 26.4438 44.5539 22.8774 43.473 19.5507C42.3921 16.2244 38.8258 14.407 35.4991 15.4879C32.1729 16.5686 30.3553 20.135 31.4362 23.4617ZM36.4769 18.497C38.1403 17.9566 39.9234 18.8653 40.4638 20.5284C41.0041 22.1915 40.0957 23.9748 38.4324 24.5153C36.7729 25.0543 34.9845 24.1431 34.4455 22.4839C33.9049 20.8209 34.8135 19.0375 36.4769 18.497Z" fill="black"/>
<path d="M25.4179 19.0898C28.9072 19.0898 31.746 16.251 31.746 12.7617C31.746 9.27239 28.9072 6.43359 25.4179 6.43359C21.9285 6.43359 19.0897 9.27239 19.0897 12.7617C19.0897 16.251 21.9285 19.0898 25.4179 19.0898ZM25.4179 9.59765C27.1625 9.59765 28.5819 11.0171 28.5819 12.7617C28.5819 14.5064 27.1625 15.9258 25.4179 15.9258C23.6732 15.9258 22.2538 14.5064 22.2538 12.7617C22.2538 11.0171 23.6732 9.59765 25.4179 9.59765Z" fill="black"/>
<path d="M25.4178 27C26.2916 27 26.9999 26.2917 26.9999 25.418C26.9999 24.5442 26.2916 23.8359 25.4178 23.8359C24.5441 23.8359 23.8358 24.5442 23.8358 25.418C23.8358 26.2917 24.5441 27 25.4178 27Z" fill="black"/>
<path d="M53.1252 51.0024C48.7668 48.8233 43.851 47.6715 38.9091 47.6715H37.6365C45.4366 43.3358 50.7301 34.9864 50.7301 25.4177C50.7301 11.4023 39.3751 0 25.4178 0C11.4256 0 0 11.4265 0 25.4177C0 39.4101 11.4265 50.8355 25.4178 50.8355H38.9091C43.3623 50.8355 47.7888 51.8718 51.7101 53.8326C52.4935 54.2242 53.4428 53.9048 53.8327 53.1251C54.2233 52.3436 53.9066 51.3933 53.1252 51.0024ZM3.16404 25.4177C3.16404 13.147 13.147 3.16403 25.4178 3.16403C37.6304 3.16403 47.5661 13.147 47.5661 25.4177C47.5661 37.6885 37.6304 47.6715 25.4178 47.6715C13.1471 47.6715 3.16404 37.6885 3.16404 25.4177V25.4177Z" fill="black"/>
</svg>
