<svg width="50" height="50" viewBox="0 0 50 50" fill="none" xmlns="http://www.w3.org/2000/svg">
<path d="M25.3207 17.6479C22.5039 17.6479 20.2204 20.2532 20.2204 23.4671C20.2204 26.6809 22.5038 29.2863 25.3207 29.2863C28.1374 29.2863 30.421 26.681 30.421 23.4671C30.421 20.2532 28.1376 17.6479 25.3207 17.6479ZM25.3207 26.5151C23.8452 26.5151 22.6491 25.1504 22.6491 23.4669C22.6491 21.7835 23.8452 20.4188 25.3207 20.4188C26.7962 20.4188 27.9923 21.7835 27.9923 23.4669C27.9923 25.1504 26.7962 26.5151 25.3207 26.5151Z" fill="black"/>
<path d="M45.6611 4.34674L12.5095 0.0517495C11.2228 -0.15696 9.91923 0.271597 8.9272 1.22949C7.93529 2.10702 7.29947 3.40781 7.1664 4.83178L6.55928 10.5124H4.67692C2.00533 10.5124 0.00164085 13.2141 0.00164085 16.2623V44.596C-0.0656486 47.5027 1.94502 49.9214 4.49272 49.9982C4.55408 50 4.61556 50.0004 4.67692 49.9995H38.0107C40.6823 49.9995 43.111 47.6442 43.111 44.596V43.4876C43.9392 43.305 44.725 42.9275 45.4182 42.3792C46.402 41.4342 47.0319 40.0959 47.179 38.6384L49.972 10.5124C50.2568 7.45723 48.3351 4.70886 45.6611 4.34674ZM40.6823 44.596C40.6823 46.1201 39.3465 47.2285 38.0107 47.2285H4.67692C3.47024 47.2689 2.46334 46.1856 2.4279 44.8088C2.42604 44.7379 2.42685 44.6669 2.43034 44.596V39.4696L11.8416 31.5722C12.9721 30.5818 14.5645 30.6699 15.6061 31.78L22.2243 38.4305C23.2293 39.3932 24.4944 39.9315 25.8066 39.9545C26.8326 39.9689 27.8417 39.6571 28.7211 39.0539L40.6824 31.1565V44.596H40.6823ZM40.6823 27.9006L27.4459 36.6986C26.3093 37.4669 24.8706 37.3278 23.8635 36.3522L17.1846 29.6324C15.2704 27.7558 12.4726 27.6407 10.445 29.3553L2.43034 36.0058V16.2623C2.43034 14.7382 3.34113 13.2835 4.67692 13.2835H38.0107C39.4378 13.351 40.5903 14.6361 40.6823 16.2623V27.9006ZM47.5457 10.1384C47.5449 10.1475 47.5442 10.1568 47.5432 10.1659L44.6895 38.2919C44.6944 39.0212 44.4029 39.7119 43.9002 40.1623C43.6573 40.4395 43.1108 40.578 43.1108 40.7166V16.2623C43.015 13.1063 40.7776 10.5839 38.0106 10.5124H8.98787L9.53432 5.10891C9.65286 4.40919 9.9735 3.77511 10.4451 3.3077C10.9776 2.88763 11.6215 2.69178 12.2667 2.75344L45.3577 7.11778C46.6928 7.26244 47.6725 8.61481 47.5457 10.1384Z" fill="black"/>
</svg>
