<svg width="51" height="51" viewBox="0 0 51 51" fill="none" xmlns="http://www.w3.org/2000/svg">
<path d="M22.7109 10.2446C23.2611 10.2446 23.707 9.74591 23.707 9.13101V5.56769C23.707 2.49767 21.4728 0 18.7265 0H4.98046C2.23424 0 0 2.49767 0 5.56769V18.9288C0 21.9988 2.23424 24.4965 4.98046 24.4965H11.4244C11.1977 32.8153 8.37425 37.1398 2.81227 37.7055C2.29918 37.7577 1.90642 38.2386 1.90642 38.8145V49.8865C1.90642 50.1927 2.01918 50.4854 2.2182 50.6957C2.40367 50.8916 2.64861 51 2.90242 51C2.92104 51 2.93977 50.9995 2.9584 50.9983C9.82227 50.5667 15.062 47.9259 18.5322 43.1493C21.9659 38.4227 23.707 31.5164 23.707 22.6218V18.6332C23.707 18.0183 23.2611 17.5196 22.7109 17.5196C22.1608 17.5196 21.7148 18.0183 21.7148 18.6332V22.6218C21.7148 38.9511 15.8842 47.4905 3.89871 48.6893V39.7993C6.92792 39.2726 9.27103 37.6963 10.8721 35.1045C12.5703 32.3551 13.4314 28.4115 13.4314 23.383C13.4314 22.7681 12.9855 22.2694 12.4353 22.2694H4.98046C3.33273 22.2694 1.99219 20.7708 1.99219 18.9288V5.56769C1.99219 3.72568 3.33273 2.22708 4.98046 2.22708H18.7265C20.3743 2.22708 21.7148 3.72568 21.7148 5.56769V9.13101C21.7148 9.74591 22.1608 10.2446 22.7109 10.2446Z" fill="black"/>
<path d="M46.0195 0H32.2734C29.5272 0 27.293 2.49767 27.293 5.56769V18.9288C27.293 21.9988 29.5272 24.4965 32.2734 24.4965H38.7174C38.4906 32.8153 35.6672 37.1398 30.1052 37.7055C29.5922 37.7577 29.1994 38.2386 29.1994 38.8145V49.8865C29.1994 50.1927 29.3121 50.4854 29.5112 50.6957C29.6966 50.8917 29.9416 51 30.1954 51C30.214 51 30.2327 50.9995 30.2514 50.9983C37.1152 50.5667 42.355 47.9259 45.8252 43.1493C49.2589 38.4229 51 31.5164 51 22.6218V5.56769C51 2.49767 48.7657 0 46.0195 0ZM49.0078 22.6218C49.0078 38.9511 43.1772 47.4905 31.1916 48.6893V39.7993C34.2209 39.2726 36.564 37.6963 38.1649 35.1045C39.8632 32.3552 40.7243 28.4116 40.7243 23.383C40.7243 22.7681 40.2783 22.2694 39.7282 22.2694H32.2734C30.6257 22.2694 29.2852 20.7708 29.2852 18.9288V5.56769C29.2852 3.72568 30.6257 2.22708 32.2734 2.22708H44.2265V10.471C44.2265 11.0859 44.6725 11.5846 45.2226 11.5846C45.7728 11.5846 46.2187 11.0859 46.2187 10.471V2.23532C47.7738 2.35046 49.0078 3.80062 49.0078 5.56769V22.6218Z" fill="black"/>
<path d="M45.2225 13.2231C44.6723 13.2231 44.2264 13.7272 44.2264 14.3421C44.2264 14.957 44.6723 15.4557 45.2225 15.4557C45.7725 15.4557 46.2186 14.957 46.2186 14.3421V14.3311C46.2186 13.7162 45.7726 13.2231 45.2225 13.2231Z" fill="black"/>
<path d="M22.7111 12.7687C22.1609 12.7687 21.715 13.2673 21.715 13.8822V13.9055C21.715 14.5204 22.1609 15.019 22.7111 15.019C23.2612 15.019 23.7072 14.5204 23.7072 13.9055V13.8822C23.7072 13.2673 23.2612 12.7687 22.7111 12.7687Z" fill="black"/>
</svg>
