<svg width="59" height="59" viewBox="0 0 59 59" fill="none" xmlns="http://www.w3.org/2000/svg">
<path d="M29.5 1C13.7854 1 1 13.7854 1 29.5C1 45.2157 13.7854 58 29.5 58C45.2157 58 58 45.2157 58 29.5C58 13.7854 45.2157 1 29.5 1ZM29.5 56.8367C14.4264 56.8367 2.16327 44.5736 2.16327 29.5C2.16327 14.4264 14.4264 2.16327 29.5 2.16327C44.5736 2.16327 56.8367 14.4264 56.8367 29.5C56.8367 44.5736 44.5736 56.8367 29.5 56.8367Z" fill="black" stroke="black" stroke-width="0.5"/>
<path d="M29.4999 7.97899C17.6334 7.97899 7.97945 17.6329 7.97945 29.4994C7.97945 41.3659 17.6334 51.0198 29.4999 51.0198C41.3663 51.0198 51.0203 41.3659 51.0203 29.4994C51.0203 17.6329 41.3663 7.97899 29.4999 7.97899ZM29.4999 49.8565C18.2755 49.8565 9.14272 40.7237 9.14272 29.4994C9.14272 18.2751 18.2755 9.14225 29.4999 9.14225C40.7242 9.14225 49.857 18.2751 49.857 29.4994C49.857 40.7237 40.7242 49.8565 29.4999 49.8565Z" fill="black" stroke="black" stroke-width="0.5"/>
<path d="M40.5637 25.3239H32.5348L30.0536 17.6882C29.8977 17.2089 29.1032 17.2089 28.9473 17.6882L26.4661 25.3239H18.4372C18.1848 25.3239 17.9615 25.4867 17.8835 25.7263C17.8056 25.966 17.8905 26.2289 18.0952 26.3766L24.5909 31.0971L22.1097 38.7317C22.0317 38.9713 22.1166 39.2342 22.3214 39.3819C22.5261 39.5297 22.8006 39.5297 23.0054 39.3819L29.4999 34.6626L35.9956 39.3819C36.0979 39.4552 36.2166 39.4936 36.3376 39.4936C36.4585 39.4936 36.5772 39.4564 36.6796 39.3819C36.8831 39.2342 36.968 38.9713 36.8913 38.7317L34.41 31.0971L40.9057 26.3766C41.1093 26.2289 41.1942 25.966 41.1174 25.7263C41.0383 25.4856 40.8161 25.3239 40.5637 25.3239ZM33.384 30.4027C33.1805 30.5504 33.0955 30.8133 33.1723 31.0529L35.2313 37.3881L29.8419 33.4725C29.7395 33.3992 29.6197 33.3609 29.4999 33.3609C29.3801 33.3609 29.2602 33.3981 29.1579 33.4725L23.7685 37.3881L25.8275 31.0529C25.9054 30.8133 25.8205 30.5504 25.6157 30.4027L20.2263 26.486H26.8883C27.1408 26.486 27.3641 26.3231 27.4421 26.0835L29.4999 19.7495L31.5589 26.0846C31.6368 26.3243 31.8601 26.4871 32.1126 26.4871H38.7746L33.384 30.4027Z" fill="black" stroke="black" stroke-width="0.5"/>
</svg>
