<svg width="53" height="53" viewBox="0 0 53 53" fill="none" xmlns="http://www.w3.org/2000/svg">
<path d="M51.4919 43.1761L42.5061 34.1913C42.0291 33.7117 41.4617 33.3315 40.8367 33.0726C40.2117 32.8138 39.5416 32.6815 38.8652 32.6833C38.5135 32.6833 38.1627 32.7191 37.8182 32.7899C35.6347 29.8619 34.4529 26.3083 34.448 22.6559C34.448 19.2778 33.7826 15.9328 32.4897 12.8118C31.1968 9.69087 29.3018 6.85509 26.9128 4.46642C25.5 3.04597 23.8193 1.91982 21.9682 1.15317C20.1171 0.386515 18.1324 -0.00541727 16.1288 5.65543e-05C7.71934 5.65543e-05 0.877793 6.84092 0.877793 15.2494C0.877041 18.9549 2.22639 22.5337 4.67345 25.3165L6.00053 24.1502C3.68924 21.5207 2.49141 18.0955 2.66036 14.5988C2.8293 11.1022 4.35178 7.80834 6.90581 5.41389C9.45984 3.01944 12.8451 1.71214 16.3458 1.76847C19.8464 1.8248 23.1879 3.24034 25.6636 5.71572C27.8884 7.94033 29.6533 10.5813 30.8574 13.4879C32.0615 16.3945 32.6812 19.5098 32.6812 22.6559C32.6846 24.4645 32.1502 26.2332 31.1461 27.7375C30.142 29.2418 28.7134 30.4137 27.0417 31.1044C26.923 31.1537 26.8165 31.2283 26.7296 31.323C26.6427 31.4178 26.5775 31.5303 26.5386 31.6528C26.4997 31.7753 26.488 31.9049 26.5043 32.0324C26.5207 32.1599 26.5646 32.2823 26.6332 32.391L27.5166 33.793C27.6341 33.9794 27.817 34.1152 28.0295 34.1737C30.0669 34.7323 31.9808 35.6695 33.6712 36.9365C33.5274 37.6337 33.5291 38.3531 33.6762 39.0496L35.4048 38.6837C35.2881 38.1327 35.3109 37.5614 35.4711 37.0215C35.6313 36.4816 35.9238 35.9903 36.322 35.5921L36.4737 35.4404C37.0913 34.8228 37.9239 34.4681 38.7972 34.4507C39.6705 34.4332 40.5167 34.7544 41.1584 35.3469C39.9185 35.4292 38.7511 35.9604 37.8746 36.8412L37.723 36.9928C37.2867 37.4286 36.9325 37.9394 36.6774 38.5008L38.2856 39.2325C38.4531 38.8638 38.6857 38.5283 38.9723 38.2421L39.124 38.0904C39.7581 37.4564 40.618 37.1002 41.5147 37.1C42.4113 37.0998 43.2714 37.4556 43.9058 38.0893L44.6965 38.8799C43.455 38.9612 42.2858 39.4927 41.4083 40.3745L41.2568 40.526C41.0988 40.6841 40.9512 40.8523 40.8149 41.0295L42.2159 42.106C42.3053 41.9897 42.4022 41.8792 42.506 41.7754L42.6577 41.6237C43.2753 41.0061 44.108 40.6514 44.9813 40.634C45.8546 40.6166 46.7007 40.9377 47.3425 41.5302C46.1025 41.6124 44.935 42.1437 44.0586 43.0245L43.9069 43.1762C42.9413 44.1418 42.3989 45.4513 42.3989 46.8167C42.3989 48.1821 42.9414 49.4916 43.907 50.4571L44.0585 50.6086C45.0241 51.5742 46.3338 52.1166 47.6994 52.1166C49.065 52.1166 50.3746 51.5742 51.3403 50.6088L51.492 50.457C52.4576 49.4915 53 48.182 53 46.8166C53 45.4511 52.4575 44.1416 51.4919 43.1761L51.4919 43.1761ZM35.2243 34.1912L35.0726 34.3429C34.7995 34.6164 34.5577 34.9195 34.3519 35.2466C32.6733 34.0528 30.8076 33.1466 28.8313 32.5654L28.6595 32.2927C30.6796 31.2224 32.3112 29.5429 33.3224 27.4927C33.8971 29.6354 34.8471 31.6593 36.1283 33.4704C35.8011 33.6762 35.4978 33.918 35.2243 34.1912V34.1912ZM50.2426 49.2078L50.0909 49.3596C49.4566 49.9937 48.5964 50.35 47.6994 50.35C46.8024 50.3499 45.9422 49.9936 45.3079 49.3594L45.1563 49.2079C44.5221 48.5737 44.1657 47.7136 44.1657 46.8167C44.1657 45.9198 44.522 45.0596 45.1563 44.4254L45.308 44.2737C45.9422 43.6395 46.8025 43.2833 47.6995 43.2833C48.5965 43.2833 49.4567 43.6396 50.091 44.2738L50.2426 44.4254H50.2426C50.8768 45.0596 51.2331 45.9198 51.2331 46.8166C51.2331 47.7135 50.8768 48.5736 50.2426 49.2078L50.2426 49.2078Z" fill="black"/>
<path d="M7.68639 20.9414L8.82858 19.7993L10.2295 21.2001L8.20391 23.2254L9.45324 24.4747L11.4789 22.4493L12.621 23.5914L13.8704 22.3421L12.7282 21.2001L14.1291 19.7993L15.53 21.2001L14.3879 22.3421L15.6372 23.5914L16.7794 22.4493L18.1803 23.8501L17.9216 24.1087L19.1709 25.358L19.4297 25.0993L20.5719 26.2414L21.8212 24.9921L20.6791 23.8501L22.08 22.4493L23.4809 23.8501L22.3387 24.9921L23.5881 26.2414L24.7303 25.0993L27.6393 28.008L28.8886 26.7587L25.9797 23.8501L27.3805 22.4493L29.4062 24.4747L30.6555 23.2254L28.6299 21.2001L29.7721 20.0581L28.5227 18.8088L27.3805 19.9508L25.9797 18.5501L27.3805 17.1493L28.5227 18.2914L29.7721 17.0421L28.6299 15.9001L29.7721 14.7581L28.5227 13.5088L27.3805 14.6508L25.9797 13.2501L27.1218 12.1081L25.8725 10.8588L24.7303 12.0008L23.3294 10.6001L25.3549 8.57475L24.1056 7.32544L22.08 9.35084L20.6791 7.9501L21.8212 6.80808L20.5719 5.55878L19.4297 6.70084L18.0288 5.3001L19.1709 4.15809L17.9216 2.90879L16.7794 4.05085L15.6372 2.90879L14.3879 4.15809L15.53 5.3001L14.1291 6.70084L12.1035 4.67545L10.8542 5.92475L12.8798 7.9501L11.4789 9.35084L9.45324 7.32544L8.20391 8.57475L10.2295 10.6001L8.82858 12.0008L6.80296 9.97544L5.55363 11.2247L7.57919 13.2501L6.1783 14.6508L5.03611 13.5088L3.78678 14.7581L4.92891 15.9001L3.78678 17.0421L5.03611 18.2914L6.1783 17.1493L7.57919 18.5501L6.43706 19.6921L7.68639 20.9414ZM11.4789 19.9508L10.078 18.5501L11.4789 17.1493L12.8798 18.5501L11.4789 19.9508ZM19.4297 17.3008L18.0288 15.9001L19.4297 14.4993L20.8306 15.9001L19.4297 17.3008ZM22.08 17.1493L23.4809 18.5501L22.08 19.9508L20.6791 18.5501L22.08 17.1493ZM16.7794 14.6508L15.3785 13.2501L16.7794 11.8493L18.1803 13.2501L16.7794 14.6508ZM15.53 15.9001L14.1291 17.3008L12.7282 15.9001L14.1291 14.4993L15.53 15.9001ZM15.3785 18.5501L16.7794 17.1493L18.1803 18.5501L16.7794 19.9508L15.3785 18.5501ZM19.4297 22.6008L18.0288 21.2001L19.4297 19.7993L20.8306 21.2001L19.4297 22.6008ZM26.1312 21.2001L24.7303 22.6008L23.3294 21.2001L24.7303 19.7993L26.1312 21.2001ZM26.1312 15.9001L24.7303 17.3008L23.3294 15.9001L24.7303 14.4993L26.1312 15.9001ZM23.4809 13.2501L22.08 14.6508L20.6791 13.2501L22.08 11.8493L23.4809 13.2501ZM20.8306 10.6001L19.4297 12.0008L18.0288 10.6001L19.4297 9.19935L20.8306 10.6001ZM16.7794 6.54935L18.1803 7.9501L16.7794 9.35084L15.3785 7.9501L16.7794 6.54935ZM14.1291 9.19935L15.53 10.6001L14.1291 12.0008L12.7282 10.6001L14.1291 9.19935ZM11.4789 11.8493L12.8798 13.2501L11.4789 14.6508L10.078 13.2501L11.4789 11.8493ZM7.42768 15.9001L8.82858 14.4993L10.2295 15.9001L8.82858 17.3008L7.42768 15.9001Z" fill="black"/>
<path d="M15.8374 35.4181C16.7292 34.861 17.7296 34.5004 18.7718 34.3604C19.814 34.2204 20.8741 34.3042 21.8814 34.6061L24.1591 35.2896C24.5384 36.4441 24.7312 37.6517 24.7304 38.8669H26.4972C26.4966 35.9029 25.5019 33.0247 23.6721 30.6927C21.8423 28.3607 19.2832 26.7097 16.4042 26.0037C13.5252 25.2978 10.4925 25.5776 7.79134 26.7985C5.09016 28.0195 2.87652 30.1109 1.5045 32.7384C0.132487 35.3658 -0.318635 38.3774 0.223296 41.2915C0.765228 44.2055 2.2689 46.8537 4.4938 48.8124C6.71869 50.771 9.53626 51.927 12.4958 52.0954C15.4554 52.2639 18.3859 51.435 20.8187 49.7414L19.8079 48.2924C18.7084 49.0602 17.4821 49.6281 16.1853 49.97L14.94 48.5475C13.2782 46.6482 12.3623 44.2104 12.3624 41.6869C12.3614 40.4512 12.6719 39.2353 13.2651 38.1513C14.7193 38.695 16.1153 39.3832 17.4321 40.2056L20.7286 42.266L21.6651 40.7678L18.3685 38.7074C17.0856 37.9069 15.7327 37.2245 14.3264 36.6685C14.7717 36.1859 15.28 35.7653 15.8374 35.4181ZM23.2092 33.1601L22.3894 32.9141C21.1415 32.5399 19.8281 32.436 18.5369 32.6094C17.2457 32.7828 16.0063 33.2295 14.9014 33.9197C13.9982 34.4827 13.2013 35.2005 12.5474 36.0401C11.7829 35.8029 11.0036 35.6025 10.2161 35.4394C12.0798 32.4597 14.672 30.0037 17.748 28.3032C20.0459 29.2889 21.9622 30.9931 23.2092 33.1601ZM15.4818 27.6028C12.547 29.5184 10.1011 32.0942 8.33985 35.124C7.56032 35.0235 6.77361 34.9605 5.98708 34.9342C6.53419 33.0647 6.88972 31.1445 7.04816 29.2032C9.54647 27.5989 12.5694 27.0252 15.4818 27.6028ZM1.76128 38.8669C1.76126 38.2113 1.81727 37.5568 1.92869 36.9108C2.45021 36.8377 2.97466 36.7821 3.50204 36.744C3.03148 37.9385 2.47627 39.0979 1.84064 40.2133C1.78798 39.7664 1.76148 39.3169 1.76128 38.8669ZM5.08939 30.7912C4.88253 32.1971 4.56478 33.5844 4.13912 34.9402C3.56117 34.9636 2.98279 35.0063 2.40733 35.0698C2.97348 33.4626 3.88955 32.0012 5.08939 30.7912ZM2.40827 42.6666C3.63883 40.7974 4.64693 38.791 5.41208 36.688C6.09264 36.6956 6.77414 36.7335 7.45186 36.801C5.91143 40.0156 5.16119 43.5515 5.2636 47.1146C3.97967 45.8734 3.00213 44.3506 2.40827 42.6666ZM13.6103 49.7109L14.1398 50.3158C13.8436 50.3385 13.5457 50.35 13.2458 50.3502C11.0796 50.3527 8.95738 49.7388 7.12704 48.5803C6.72174 44.6113 7.47485 40.6099 9.29533 37.0597C10.0602 37.1984 10.8177 37.3754 11.5649 37.59C10.9264 38.8613 10.5945 40.2644 10.5956 41.6869C10.5955 44.6384 11.6667 47.4895 13.6103 49.7109Z" fill="black"/>
<path d="M34.4482 40.6334C33.3635 40.6326 32.2978 40.9189 31.3596 41.4634C30.4196 40.9199 29.353 40.6335 28.2671 40.633C27.1813 40.6325 26.1144 40.9179 25.1739 41.4605C24.2333 42.003 23.4522 42.7837 22.9091 43.7239C22.366 44.664 22.0801 45.7306 22.0801 46.8164C22.08 47.9021 22.3659 48.9687 22.9089 49.9089C23.452 50.8491 24.233 51.6298 25.1735 52.1724C26.1141 52.7151 27.1809 53.0005 28.2667 53.0001C29.3526 52.9997 30.4192 52.7134 31.3593 52.17C32.1807 52.6439 33.1001 52.9226 34.0464 52.9844C34.9928 53.0462 35.9406 52.8895 36.8167 52.5265C37.6928 52.1634 38.4736 51.6037 39.0988 50.8906C39.7239 50.1776 40.1766 49.3303 40.4219 48.4143C40.6671 47.4983 40.6984 46.5382 40.5132 45.6082C40.3279 44.6782 39.9313 43.8033 39.3538 43.0511C38.7763 42.2989 38.0335 41.6896 37.1829 41.2704C36.3322 40.8512 35.3966 40.6333 34.4482 40.6334ZM38.8476 46.4332L38.6066 46.1922C38.2926 45.8782 37.9197 45.629 37.5094 45.4591C37.099 45.2891 36.6592 45.2016 36.2151 45.2016C35.7709 45.2016 35.3311 45.2891 34.9207 45.4591C34.5104 45.629 34.1375 45.8782 33.8235 46.1922C33.6735 46.3422 33.4954 46.4612 33.2995 46.5423C33.1035 46.6235 32.8934 46.6653 32.6813 46.6653C32.4692 46.6653 32.2591 46.6235 32.0632 46.5423C31.8672 46.4611 31.6891 46.3421 31.5392 46.1921L30.3998 45.0529C30.7918 44.1526 31.4727 43.4087 32.3349 42.9387C33.1971 42.4687 34.1914 42.2996 35.1606 42.4579C36.1297 42.6163 37.0184 43.0931 37.6862 43.8131C38.3539 44.533 38.7626 45.455 38.8476 46.4332H38.8476ZM28.2642 42.4001C28.8049 42.3997 29.3411 42.4987 29.8459 42.6922C29.1001 43.5217 28.5932 44.5379 28.3792 45.6327C28.1081 45.7843 27.8591 45.9725 27.6395 46.1922C27.4895 46.3422 27.3114 46.4612 27.1155 46.5423C26.9195 46.6235 26.7094 46.6653 26.4973 46.6653C26.2852 46.6653 26.0752 46.6235 25.8792 46.5423C25.6832 46.4611 25.5052 46.3421 25.3552 46.1921L24.2158 45.0529C24.5598 44.2651 25.1259 43.5947 25.8449 43.1236C26.5639 42.6525 27.4046 42.4011 28.2642 42.4001ZM23.8648 47.2004L24.1058 47.4413C24.6563 47.9916 25.3797 48.3353 26.1541 48.4144C26.9284 48.4935 27.7064 48.3033 28.3568 47.8758C28.5553 49.0173 29.0715 50.0799 29.8462 50.9416C29.2074 51.186 28.5207 51.2788 27.84 51.2128C27.1593 51.1467 26.5032 50.9235 25.9234 50.5609C25.3436 50.1982 24.8559 49.7059 24.4987 49.1228C24.1414 48.5397 23.9245 47.8816 23.8648 47.2004ZM34.4482 51.2334C33.3436 51.232 32.2796 50.8173 31.4654 50.0709C30.6513 49.3245 30.1459 48.3005 30.0488 47.2004L30.2898 47.4413C30.6038 47.7554 30.9767 48.0045 31.387 48.1745C31.7974 48.3444 32.2372 48.4319 32.6814 48.4319C33.1255 48.4319 33.5653 48.3444 33.9757 48.1745C34.386 48.0045 34.7589 47.7554 35.0729 47.4413C35.2229 47.2913 35.401 47.1724 35.597 47.0912C35.7929 47.01 36.003 46.9683 36.2151 46.9683C36.4272 46.9683 36.6373 47.0101 36.8333 47.0913C37.0292 47.1724 37.2073 47.2914 37.3573 47.4414L38.4967 48.5807C38.1527 49.3684 37.5866 50.0388 36.8676 50.5099C36.1486 50.9811 35.3078 51.2325 34.4482 51.2334Z" fill="black"/>
</svg>
