<svg width="54" height="53" viewBox="0 0 54 53" fill="none" xmlns="http://www.w3.org/2000/svg">
<path d="M26.5068 4.42915C23.5375 4.42915 20.6349 5.30964 18.166 6.95928C15.6972 8.60892 13.7729 10.9536 12.6366 13.6969C11.5003 16.4401 11.203 19.4587 11.7823 22.3709C12.3616 25.2832 13.7914 27.9582 15.891 30.0578C17.9906 32.1574 20.6657 33.5872 23.5779 34.1665C26.4901 34.7458 29.5087 34.4485 32.252 33.3122C34.9952 32.1759 37.3399 30.2517 38.9895 27.7828C40.6392 25.3139 41.5197 22.4113 41.5197 19.4421C41.5152 15.4618 39.9321 11.6457 37.1176 8.83124C34.3031 6.01673 30.4871 4.43359 26.5068 4.42915ZM27.3899 18.5491V14.1584C29.1364 14.1412 30.8425 14.0734 32.4838 13.9564C32.8093 15.3824 33.0055 16.835 33.0698 18.2963C31.2519 18.4436 29.3446 18.5292 27.3899 18.5491ZM33.0855 20.0663C33.0497 21.6057 32.8689 23.1382 32.5455 24.6436C30.8788 24.7674 29.1481 24.84 27.3899 24.8583V20.3153C29.3456 20.2956 31.2574 20.2115 33.0855 20.0663V20.0663ZM27.3899 12.3923V9.49325C28.4949 9.44636 29.5916 9.27965 30.6606 8.99606C31.2103 10.0265 31.6645 11.105 32.0176 12.2182C30.5229 12.3178 28.9744 12.3764 27.3899 12.3923ZM26.5068 6.19538C28.0526 6.19864 29.5858 6.47434 31.036 7.00982C29.5813 7.5203 28.0484 7.77209 26.5068 7.75376C24.9652 7.77209 23.4323 7.5203 21.9775 7.00982C23.4277 6.47434 24.9609 6.19864 26.5068 6.19538ZM22.0113 8.88918C23.1859 9.23882 24.3992 9.44172 25.6236 9.49325V12.3923C23.9007 12.375 22.2192 12.3078 20.6047 12.1916C20.9685 11.049 21.4395 9.94325 22.0113 8.88918ZM19.5458 18.2641C19.612 16.8044 19.8097 15.3538 20.1367 13.9297C21.8969 14.0644 23.7382 14.1399 25.6236 14.1584V18.5491C23.5262 18.5277 21.4815 18.4316 19.5458 18.2641ZM25.6236 20.3153V24.8583C23.7229 24.8384 21.8524 24.756 20.0627 24.6134C19.7411 23.107 19.5621 21.5737 19.5282 20.0338C21.4759 20.1989 23.5249 20.2941 25.6236 20.3153ZM19.9234 7.96337C20.0632 8.05256 20.2152 8.1352 20.369 8.21751C19.7271 9.43865 19.2062 10.7196 18.8136 12.0421C17.7715 11.9404 16.7624 11.819 15.7987 11.6755C16.898 10.1625 18.3033 8.89769 19.9234 7.96337ZM14.7812 13.2989C15.9193 13.4854 17.1142 13.6433 18.3658 13.7727C18.0524 15.1927 17.8582 16.6365 17.7853 18.0889C16.2286 17.9128 14.769 17.6881 13.4312 17.4195C13.6498 15.9807 14.106 14.5882 14.7812 13.2989ZM13.2601 19.4421C13.2601 19.357 13.2712 19.2746 13.2728 19.1899C14.6553 19.4604 16.1602 19.6849 17.7569 19.8613C17.7779 21.3994 17.9329 22.9327 18.22 24.444C16.7317 24.2859 15.3265 24.0837 14.0276 23.8433C13.5228 22.4307 13.2632 20.9422 13.2601 19.4421ZM19.9234 30.9208C17.8038 29.7033 16.0598 27.9266 14.8818 25.7849C16.0692 25.9747 17.3327 26.1323 18.6464 26.26C19.0566 27.7878 19.6342 29.2656 20.369 30.6665C20.2152 30.7489 20.0632 30.8317 19.9234 30.9208V30.9208ZM25.6236 26.6245V29.3909C24.3992 29.4424 23.1859 29.6453 22.0113 29.9949C21.3973 28.8559 20.8999 27.6578 20.5266 26.4189C22.179 26.5375 23.8893 26.6067 25.6236 26.6245ZM26.5068 32.6888C24.9609 32.6855 23.4277 32.4098 21.9776 31.8743C23.4323 31.3638 24.9652 31.112 26.5068 31.1304C28.0483 31.112 29.5812 31.3638 31.0359 31.8743C29.5858 32.4098 28.0526 32.6855 26.5068 32.6888ZM30.6606 29.8881C29.5916 29.6045 28.4949 29.4378 27.3899 29.3909V26.6245C28.9811 26.6081 30.5543 26.5507 32.0794 26.4493C31.7184 27.6386 31.2433 28.7902 30.6606 29.8881ZM33.0902 30.9208C32.8471 30.7655 32.5948 30.6252 32.3346 30.5008C33.0203 29.161 33.564 27.7532 33.9567 26.3003C35.419 26.1665 36.8206 25.9945 38.1318 25.785C36.9538 27.9267 35.2097 29.7034 33.0902 30.9208ZM39.7535 19.4421C39.7503 20.9422 39.4908 22.4307 38.9859 23.8433C37.5699 24.1053 36.0232 24.3197 34.3859 24.4837C34.6755 22.9738 34.833 21.4415 34.8564 19.9042C36.6018 19.722 38.2433 19.4829 39.7407 19.1899C39.7423 19.2746 39.7535 19.357 39.7535 19.4421ZM39.5824 17.4195C38.1317 17.7108 36.5351 17.9492 34.8307 18.1313C34.7602 16.6773 34.5683 15.2316 34.2569 13.8096C35.6482 13.676 36.9769 13.5046 38.2324 13.2988C38.9075 14.5882 39.3637 15.9807 39.5824 17.4195ZM33.811 12.0767C33.4351 10.8022 32.9408 9.56572 32.3346 8.38331C32.5948 8.25892 32.8471 8.11867 33.0902 7.96337C34.7102 8.89769 36.1156 10.1625 37.2148 11.6755C36.1327 11.8365 34.9907 11.9684 33.811 12.0767V12.0767Z" fill="black"/>
<path d="M50.3507 8.84436V6.95273C51.1831 6.73779 51.9086 6.22661 52.3912 5.51502C52.8737 4.80342 53.0802 3.94027 52.9718 3.08735C52.8635 2.23442 52.4478 1.45029 51.8027 0.88193C51.1576 0.313569 50.3273 0 49.4675 0C48.6078 0 47.7775 0.313569 47.1324 0.88193C46.4873 1.45029 46.0716 2.23442 45.9632 3.08735C45.8549 3.94027 46.0614 4.80342 46.5439 5.51502C47.0265 6.22661 47.752 6.73779 48.5844 6.95273V7.96125H42.1675C40.5479 5.74567 38.4764 3.89911 36.0901 2.54362C33.7037 1.18813 31.0569 0.354589 28.3244 0.0981027C25.592 -0.158383 22.8363 0.168026 20.2394 1.05575C17.6425 1.94348 15.2636 3.3723 13.2599 5.24777V3.54568C13.26 3.4297 13.2371 3.31485 13.1928 3.20769C13.1484 3.10054 13.0833 3.00317 13.0013 2.92116C12.9193 2.83915 12.822 2.7741 12.7148 2.72973C12.6076 2.68536 12.4928 2.66254 12.3768 2.66257H6.95273C6.73779 1.8301 6.22661 1.10459 5.51502 0.622048C4.80342 0.139505 3.94027 -0.0669486 3.08735 0.0413868C2.23442 0.149722 1.45029 0.565408 0.88193 1.21053C0.313569 1.85565 0 2.68591 0 3.54568C0 4.40546 0.313569 5.23572 0.88193 5.88084C1.45029 6.52596 2.23442 6.94164 3.08735 7.04998C3.94027 7.15831 4.80342 6.95186 5.51502 6.46932C6.22661 5.98677 6.73779 5.26127 6.95273 4.4288H11.4937V7.07813H11.5309C8.64905 10.5533 7.0738 14.9271 7.07813 19.4417C7.21211 24.4701 8.74161 29.3623 11.4957 33.5715H4.4288V31.6799C5.26127 31.4649 5.98677 30.9538 6.46932 30.2422C6.95186 29.5306 7.15831 28.6674 7.04998 27.8145C6.94164 26.9616 6.52596 26.1775 5.88084 25.6091C5.23572 25.0407 4.40546 24.7272 3.54568 24.7272C2.68591 24.7272 1.85565 25.0407 1.21053 25.6091C0.565408 26.1775 0.149722 26.9616 0.0413868 27.8145C-0.0669486 28.6674 0.139505 29.5306 0.622048 30.2422C1.10459 30.9538 1.8301 31.4649 2.66257 31.6799V34.4546C2.66254 34.5706 2.68536 34.6855 2.72973 34.7926C2.7741 34.8998 2.83915 34.9971 2.92116 35.0792C3.00317 35.1612 3.10054 35.2262 3.20769 35.2706C3.31485 35.315 3.4297 35.3378 3.54568 35.3377H12.7284C13.0662 35.7845 13.4121 36.2235 13.7748 36.6443C14.3626 37.3305 14.8768 38.0766 15.3089 38.8702H10.6106C10.4946 38.8702 10.3798 38.893 10.2726 38.9374C10.1654 38.9817 10.0681 39.0468 9.98606 39.1288C9.90405 39.2108 9.839 39.3082 9.79463 39.4153C9.75026 39.5225 9.72744 39.6373 9.72747 39.7533V45.9351H7.83584C7.6209 45.1026 7.10972 44.3771 6.39813 43.8946C5.68654 43.412 4.82338 43.2056 3.97046 43.3139C3.11754 43.4222 2.3334 43.8379 1.76504 44.4831C1.19668 45.1282 0.883113 45.9584 0.883113 46.8182C0.883113 47.678 1.19668 48.5082 1.76504 49.1534C2.3334 49.7985 3.11754 50.2142 3.97046 50.3225C4.82338 50.4308 5.68654 50.2244 6.39813 49.7418C7.10972 49.2593 7.6209 48.5338 7.83584 47.7013H10.6106C10.7266 47.7014 10.8414 47.6785 10.9486 47.6342C11.0557 47.5898 11.1531 47.5247 11.2351 47.4427C11.3171 47.3607 11.3822 47.2634 11.4265 47.1562C11.4709 47.049 11.4937 46.9342 11.4937 46.8182V40.6364H16.1074C16.5538 41.8631 16.7855 43.1576 16.7924 44.4629V44.8579C16.4394 45.1712 16.1774 45.5738 16.0338 46.0234C15.8902 46.4729 15.8704 46.9529 15.9764 47.4128C16.0824 47.8727 16.3104 48.2955 16.6363 48.6368C16.9623 48.9781 17.3741 49.2253 17.8286 49.3525C17.7301 49.6179 17.6783 49.8985 17.6755 50.1816V50.5197C17.6763 51.1773 17.9379 51.8078 18.403 52.2728C18.868 52.7378 19.4986 52.9993 20.1562 53H32.857C33.5147 52.9993 34.1452 52.7378 34.6102 52.2728C35.0753 51.8078 35.3369 51.1773 35.3377 50.5197V50.1816C35.335 49.8985 35.2832 49.6179 35.1846 49.3525C35.6391 49.2253 36.051 48.9781 36.3769 48.6368C36.7028 48.2955 36.9308 47.8727 37.0368 47.4128C37.1428 46.9529 37.123 46.473 36.9794 46.0234C36.8359 45.5738 36.5738 45.1712 36.2209 44.8579V44.4629C36.2588 41.5796 37.3294 38.8055 39.2385 36.6443C39.3574 36.5063 39.4704 36.3618 39.5868 36.2208H42.4026V45.052C42.4026 45.168 42.4254 45.2828 42.4698 45.39C42.5142 45.4971 42.5792 45.5945 42.6612 45.6765C42.7432 45.7585 42.8406 45.8236 42.9478 45.8679C43.0549 45.9123 43.1698 45.9351 43.2858 45.9351H46.0605C46.2754 46.7676 46.7866 47.4931 47.4982 47.9756C48.2098 48.4582 49.073 48.6646 49.9259 48.5563C50.7788 48.4479 51.5629 48.0323 52.1313 47.3871C52.6997 46.742 53.0132 45.9118 53.0132 45.052C53.0132 44.1922 52.6997 43.3619 52.1313 42.7168C51.5629 42.0717 50.7788 41.656 49.9259 41.5477C49.073 41.4394 48.2098 41.6458 47.4982 42.1284C46.7866 42.6109 46.2754 43.3364 46.0605 44.1689H44.1689V35.3377C44.1689 35.2218 44.1461 35.1069 44.1017 34.9998C44.0573 34.8926 43.9923 34.7952 43.9103 34.7132C43.8283 34.6312 43.7309 34.5662 43.6237 34.5218C43.5166 34.4774 43.4017 34.4546 43.2858 34.4546H40.9262C43.1438 31.2658 44.6925 27.6609 45.4791 23.8573H48.5844V25.7489C47.752 25.9639 47.0265 26.475 46.5439 27.1866C46.0614 27.8982 45.8549 28.7614 45.9632 29.6143C46.0716 30.4672 46.4873 31.2513 47.1324 31.8197C47.7775 32.3881 48.6078 32.7016 49.4675 32.7016C50.3273 32.7016 51.1576 32.3881 51.8027 31.8197C52.4478 31.2513 52.8635 30.4672 52.9718 29.6143C53.0802 28.7614 52.8737 27.8982 52.3912 27.1866C51.9086 26.475 51.1831 25.9639 50.3507 25.7489V22.9742C50.3507 22.8582 50.3279 22.7433 50.2835 22.6362C50.2391 22.529 50.1741 22.4317 50.0921 22.3496C50.0101 22.2676 49.9127 22.2026 49.8055 22.1582C49.6984 22.1138 49.5835 22.091 49.4675 22.0911H45.7602C45.8729 21.2124 45.9313 20.3276 45.9351 19.4417C45.9378 16.0295 45.0359 12.6776 43.3213 9.72747H49.4675C49.5835 9.7275 49.6984 9.70468 49.8055 9.66031C49.9127 9.61594 50.0101 9.55089 50.0921 9.46888C50.1741 9.38687 50.2391 9.28951 50.2835 9.18235C50.3279 9.07519 50.3507 8.96034 50.3507 8.84436ZM3.54568 5.31191C3.19636 5.31191 2.85488 5.20832 2.56442 5.01425C2.27397 4.82017 2.04758 4.54432 1.9139 4.22159C1.78022 3.89885 1.74524 3.54372 1.81339 3.20111C1.88154 2.8585 2.04976 2.54378 2.29677 2.29677C2.54378 2.04976 2.8585 1.88154 3.20111 1.81339C3.54372 1.74524 3.89885 1.78022 4.22159 1.9139C4.54432 2.04758 4.82017 2.27397 5.01425 2.56442C5.20832 2.85488 5.31191 3.19636 5.31191 3.54568C5.31137 4.01395 5.12512 4.46289 4.794 4.794C4.46289 5.12512 4.01395 5.31137 3.54568 5.31191ZM1.77946 28.2728C1.77946 27.9235 1.88304 27.582 2.07712 27.2916C2.2712 27.0011 2.54704 26.7747 2.86978 26.6411C3.19251 26.5074 3.54764 26.4724 3.89026 26.5406C4.23287 26.6087 4.54758 26.7769 4.79459 27.0239C5.0416 27.2709 5.20982 27.5857 5.27797 27.9283C5.34612 28.2709 5.31114 28.626 5.17746 28.9487C5.04378 29.2715 4.8174 29.5473 4.52695 29.7414C4.23649 29.9355 3.89501 30.0391 3.54568 30.0391C3.07742 30.0385 2.62848 29.8523 2.29736 29.5212C1.96625 29.19 1.77999 28.7411 1.77946 28.2728ZM4.4288 48.5844C4.07947 48.5844 3.73799 48.4809 3.44753 48.2868C3.15708 48.0927 2.9307 47.8168 2.79702 47.4941C2.66333 47.1714 2.62836 46.8162 2.69651 46.4736C2.76466 46.131 2.93287 45.8163 3.17989 45.5693C3.4269 45.3223 3.74161 45.1541 4.08422 45.0859C4.42684 45.0178 4.78197 45.0527 5.1047 45.1864C5.42744 45.3201 5.70328 45.5465 5.89736 45.8369C6.09143 46.1274 6.19502 46.4689 6.19502 46.8182C6.19449 47.2865 6.00823 47.7354 5.67711 48.0665C5.346 48.3976 4.89706 48.5839 4.4288 48.5844ZM49.4675 43.2858C49.8169 43.2858 50.1584 43.3893 50.4488 43.5834C50.7393 43.7775 50.9656 44.0533 51.0993 44.3761C51.233 44.6988 51.268 45.0539 51.1998 45.3966C51.1317 45.7392 50.9635 46.0539 50.7165 46.3009C50.4694 46.5479 50.1547 46.7161 49.8121 46.7843C49.4695 46.8524 49.1144 46.8174 48.7916 46.6838C48.4689 46.5501 48.1931 46.3237 47.999 46.0332C47.8049 45.7428 47.7013 45.4013 47.7013 45.052C47.7019 44.5837 47.8881 44.1348 48.2192 43.8037C48.5503 43.4725 48.9993 43.2863 49.4675 43.2858ZM51.2338 29.156C51.2338 29.5053 51.1302 29.8468 50.9361 30.1372C50.742 30.4277 50.4662 30.6541 50.1435 30.7877C49.8207 30.9214 49.4656 30.9564 49.123 30.8882C48.7804 30.8201 48.4656 30.6519 48.2186 30.4049C47.9716 30.1579 47.8034 29.8431 47.7353 29.5005C47.6671 29.1579 47.7021 28.8028 47.8358 28.4801C47.9695 28.1573 48.1958 27.8815 48.4863 27.6874C48.7767 27.4933 49.1182 27.3897 49.4675 27.3897C49.9358 27.3903 50.3848 27.5765 50.7159 27.9076C51.047 28.2388 51.2332 28.6877 51.2338 29.156ZM33.5715 50.5197C33.5713 50.7091 33.496 50.8907 33.362 51.0246C33.228 51.1585 33.0464 51.2337 32.857 51.2338H20.1562C19.9668 51.2337 19.7852 51.1585 19.6512 51.0246C19.5172 50.8907 19.4419 50.7091 19.4417 50.5197V50.1816C19.4419 49.9922 19.5172 49.8106 19.6512 49.6767C19.7852 49.5429 19.9668 49.4676 20.1562 49.4675H32.857C33.0464 49.4676 33.228 49.5429 33.362 49.6767C33.496 49.8106 33.5713 49.9922 33.5715 50.1816V50.5197ZM34.4546 47.7013H18.5586C18.3244 47.7013 18.0998 47.6083 17.9341 47.4427C17.7685 47.2771 17.6755 47.0524 17.6755 46.8182C17.6755 46.584 17.7685 46.3594 17.9341 46.1938C18.0998 46.0281 18.3244 45.9351 18.5586 45.9351H34.4546C34.6888 45.9351 34.9135 46.0281 35.0791 46.1938C35.2447 46.3594 35.3377 46.584 35.3377 46.8182C35.3377 47.0524 35.2447 47.2771 35.0791 47.4427C34.9135 47.6083 34.6888 47.7013 34.4546 47.7013ZM44.1689 19.4417C43.9765 25.3507 41.7642 31.0151 37.9008 35.4904C35.7841 37.898 34.5674 40.9649 34.4581 44.1689H18.5551C18.4458 40.9649 17.2291 37.898 15.1124 35.4904C11.2491 31.0151 9.03674 25.3507 8.84436 19.4417C8.84436 14.7574 10.7052 10.2649 14.0175 6.95261C17.3298 3.6403 21.8223 1.77946 26.5066 1.77946C31.1909 1.77946 35.6834 3.6403 38.9957 6.95261C42.308 10.2649 44.1689 14.7574 44.1689 19.4417ZM47.7013 3.54568C47.7013 3.19636 47.8049 2.85488 47.999 2.56442C48.1931 2.27397 48.4689 2.04758 48.7916 1.9139C49.1144 1.78022 49.4695 1.74524 49.8121 1.81339C50.1547 1.88154 50.4694 2.04976 50.7165 2.29677C50.9635 2.54378 51.1317 2.8585 51.1998 3.20111C51.268 3.54372 51.233 3.89885 51.0993 4.22159C50.9656 4.54432 50.7393 4.82017 50.4488 5.01425C50.1584 5.20832 49.8169 5.31191 49.4675 5.31191C48.9993 5.31137 48.5503 5.12512 48.2192 4.794C47.8881 4.46289 47.7019 4.01395 47.7013 3.54568Z" fill="black"/>
<path d="M29.1561 38.8705H27.3899V40.6368H29.1561V38.8705Z" fill="black"/>
<path d="M27.3899 37.1043H25.6236V38.8705H27.3899V37.1043Z" fill="black"/>
<path d="M25.6236 38.8705H23.8574V40.6368H25.6236V38.8705Z" fill="black"/>
<path d="M30.9223 40.6368H29.1561V42.403H30.9223V40.6368Z" fill="black"/>
<path d="M23.8574 40.6368H22.0912V42.403H23.8574V40.6368Z" fill="black"/>
</svg>
