<svg width="52" height="52" viewBox="0 0 52 52" fill="none" xmlns="http://www.w3.org/2000/svg">
<path d="M38.8354 9.95745C37.6287 9.62553 34.8861 8.74043 31.5949 7.63404L36.0928 1.32766L28.7426 0L19.1983 3.87234C15.7975 2.8766 12.9451 2.10213 11.6287 1.88085C3.07173 0.331915 0.329114 6.6383 0.219409 6.74894L0 7.19149L0.329114 7.74468C0.438819 7.85532 1.75527 11.1745 7.78903 12.2809C3.07173 16.5957 0.329114 22.6809 0.329114 29.2085C0.329114 41.8213 10.5316 52 22.9283 52C35.3249 52 45.5274 41.7106 45.5274 29.2085C45.5274 25.5574 44.6498 21.9064 43.0042 18.6979L52 6.19574L44.1013 4.75745L38.8354 9.95745ZM28.962 2.3234L32.2532 2.8766L29.4008 6.97021C27.2068 6.30638 24.903 5.53191 22.5992 4.86809L28.962 2.3234ZM12.5063 13.166L13.8228 15.4894L13.4937 15.3787C13.1646 15.2681 12.8354 15.2681 12.5063 15.1574C11.9578 14.9362 11.519 14.6043 11.0802 14.2723L9.98312 13.4979C10.2025 13.2766 10.5316 13.0553 10.7511 12.9447L12.5063 13.166ZM23.4768 15.1574L24.903 23.8979L20.5148 23.1234L15.2489 13.7191L23.4768 15.1574ZM22.0506 29.5404C22.27 30.3149 22.5992 30.9787 22.9283 31.6426C23.3671 32.5277 23.8059 33.1915 23.6962 33.8553C23.5865 34.8511 22.27 35.5149 21.7215 35.7362C21.3924 35.8468 20.9536 36.0681 20.6245 36.1787C19.7468 36.5106 18.7595 36.8426 17.8819 37.5064C16.7848 38.2809 16.1266 39.3872 15.4684 40.4936C15.3586 40.6043 15.2489 40.8255 15.1392 40.9362C15.1392 40.9362 15.0295 40.9362 14.8101 41.0468C14.2616 41.1574 13.6034 41.0468 12.8354 41.0468C12.1772 41.0468 11.4093 40.9362 10.6413 41.0468C9.65401 41.0468 8.44726 41.7106 7.78903 42.5957C7.78903 42.7064 7.67932 42.7064 7.67932 42.817C7.56962 42.7064 7.45992 42.5957 7.35021 42.4851L10.5316 38.5021C12.2869 36.2894 11.7384 34.8511 11.1899 34.1872C11.0802 34.0766 10.8608 33.8553 10.7511 33.7447C10.6414 33.7447 10.6413 33.634 10.5316 33.634C10.4219 33.5234 10.5316 32.8596 10.9705 32.1957C11.6287 31.3106 12.5063 29.8723 11.9578 28.434C11.6287 27.5489 10.8608 26.9957 10.2025 26.6638C9.87342 26.4426 9.65401 26.3319 9.4346 26.1106C8.77637 25.4468 8.99578 24.0085 9.32489 22.5702C9.5443 21.5745 10.4219 18.5872 8.44726 16.9277C8.33755 16.817 8.11814 16.7064 8.00844 16.5957C7.78903 16.4851 7.45992 16.1532 7.45992 16.0426C7.45992 16.1532 7.56962 16.2638 7.45992 16.3745L7.24051 16.0426C7.56962 15.7106 7.89873 15.2681 8.22785 14.9362L9.65401 16.0426C10.2025 16.4851 10.8608 16.9277 11.6287 17.2596C12.0675 17.4809 12.5063 17.4809 12.9451 17.5915L15.0295 18.034V17.9234L19.0886 25.1149L22.27 25.6681C22.0506 26.7745 21.7215 28.2128 22.0506 29.5404ZM6.14346 17.5915C6.36287 17.8128 6.58228 18.034 6.80169 18.1447C6.91139 18.2553 7.0211 18.2553 7.1308 18.366C7.67932 18.9191 7.78903 20.0255 7.35021 21.7957C7.0211 23.1234 6.36287 25.7787 7.89873 27.4383C8.22785 27.7702 8.66667 28.1021 9.10549 28.3234C9.5443 28.5447 9.87342 28.766 9.98312 28.9872C10.0928 29.4298 9.65401 30.2043 9.21519 30.7574C8.11814 32.3064 8.00844 33.8553 8.88608 34.8511C8.99578 34.9617 9.21519 35.183 9.32489 35.2936C9.4346 35.2936 9.4346 35.4043 9.5443 35.4043C9.65401 35.5149 9.5443 36.0681 8.88608 36.9532L6.03376 40.4936C3.83966 37.1745 2.63291 33.3021 2.63291 29.0979C2.52321 25.0043 3.83966 20.9106 6.14346 17.5915ZM9.32489 44.4766C9.32489 44.366 9.32489 44.1447 9.5443 43.9234C9.87342 43.4809 10.5316 43.1489 11.0802 43.1489C11.6287 43.0383 12.1772 43.1489 12.8354 43.1489C13.6034 43.2596 14.481 43.2596 15.2489 43.1489C15.5781 43.1489 16.0169 43.0383 16.346 42.7064C16.7848 42.3745 17.1139 41.9319 17.3333 41.6C17.8819 40.6043 18.4304 39.8298 19.1983 39.2766C19.7468 38.834 20.5148 38.6128 21.2827 38.2808C21.7215 38.1702 22.0506 37.9489 22.4895 37.8383C24.3544 37.0638 25.4515 35.7362 25.7806 34.2979C26 32.8596 25.3418 31.7532 24.7932 30.6468C24.4641 30.0936 24.2447 29.5404 24.135 29.0979C23.9156 28.2128 24.135 27.1064 24.3544 26.1106L27.5359 26.6638L25.6709 15.6L38.8354 18.034C37.6287 18.2553 36.3122 18.6979 35.654 20.0255C35.5443 20.1362 35.5443 20.3574 35.4346 20.4681C35.3249 20.5787 35.3249 20.8 35.3249 20.8C35.2152 21.0213 34.8861 21.1319 34.4473 21.3532C34.2278 21.4638 34.0084 21.5745 33.789 21.6851C33.1308 22.1277 32.5823 22.7915 32.3629 23.566C32.3629 23.7872 32.3629 23.8979 32.3629 24.1191C32.1435 24.3404 31.8143 24.4511 31.4852 24.6723C31.1561 24.783 30.827 25.0043 30.4979 25.2255C29.2911 26 28.1941 27.4383 28.7426 28.9872C28.962 29.6511 29.4008 30.0936 29.73 30.4255C29.8397 30.6468 30.1688 30.8681 30.1688 30.9787C30.1688 31.0894 30.0591 31.3106 29.9494 31.4213C29.8397 31.6426 29.6203 31.9745 29.5105 32.3064C28.8523 33.966 29.8397 35.5149 30.3882 36.2894C30.827 36.9532 31.4852 37.8383 32.3629 38.3915C32.5823 38.5021 32.8017 38.6128 33.0211 38.7234C33.1308 38.834 33.3502 38.834 33.4599 38.9447C34.1181 39.2766 34.4473 40.2723 34.7764 41.1574L34.9958 41.6C35.4346 42.817 36.0928 43.8128 36.9705 44.366C33.3502 47.7957 28.4135 50.0085 23.038 50.0085C17.7722 49.7872 12.9451 47.7957 9.32489 44.4766ZM38.5063 42.4851C37.8481 42.3745 37.2996 41.4894 36.9705 40.7149L36.8608 40.2723C36.4219 39.0553 35.8734 37.617 34.557 36.8426C34.3376 36.7319 34.1181 36.6213 33.8987 36.5106C33.789 36.4 33.5696 36.4 33.4599 36.2894C33.0211 36.0681 32.5823 35.4043 32.2532 34.8511C31.8143 34.1872 31.3755 33.4128 31.5949 32.9702C31.5949 32.8596 31.7046 32.7489 31.8143 32.5277C32.0338 32.1957 32.4726 31.6426 32.4726 30.9787C32.4726 29.983 31.8143 29.3191 31.3755 28.766C31.1561 28.5447 30.9367 28.3234 30.827 28.1021C30.7173 27.8809 31.1561 27.3277 31.7046 26.9957C31.9241 26.8851 32.2532 26.6638 32.4726 26.5532C33.1308 26.2213 33.8987 25.8894 34.4473 25.2255L34.9958 24.5617L34.557 23.8979C34.557 23.7872 34.7764 23.6766 34.8861 23.566C34.9958 23.4553 35.2152 23.3447 35.3249 23.3447C35.8734 23.1234 36.5316 22.7915 36.9705 22.017C37.1899 21.7957 37.2996 21.4638 37.2996 21.2426C37.2996 21.1319 37.4093 21.0213 37.4093 20.9106C37.8481 20.1362 39.0549 19.8043 41.0295 20.0255C42.346 22.7915 43.1139 25.8894 43.1139 28.9872C43.443 34.2979 41.5781 38.9447 38.5063 42.4851ZM48.4895 7.74468L42.1266 16.3745L8.11814 10.1787C2.74262 9.07234 4.05907 8.29787 3.07173 7.19149C3.51055 6.52766 4.16878 5.53192 5.48523 4.75745C6.03376 5.64255 7.1308 6.74894 8.88608 7.30213L9.5443 5.2C8.66667 4.86808 8.00844 4.42553 7.67932 3.98298C8.66667 3.7617 9.87342 3.7617 11.2996 4.09362C15.9072 4.97872 38.5063 12.2809 38.7257 12.2809L39.2743 12.5021L44.7595 7.19149L48.4895 7.74468Z" fill="black"/>
</svg>
