<svg width="63" height="49" viewBox="0 0 63 49" fill="none" xmlns="http://www.w3.org/2000/svg">
<path fill-rule="evenodd" clip-rule="evenodd" d="M56.875 48.75H5.41667C2.42531 48.75 0 46.3247 0 43.3333V5.41667C0 2.42531 2.42531 0 5.41667 0H56.875C59.8664 0 62.2917 2.42531 62.2917 5.41667V43.3333C62.2917 46.3247 59.8664 48.75 56.875 48.75ZM14.8958 2.70833H5.41667C3.92167 2.70833 2.70833 3.92167 2.70833 5.41667V8.125H14.8958V2.70833ZM29.7917 2.70833H17.6042V8.125H29.7917V2.70833ZM44.6875 2.70833H32.5V8.125H44.6875V2.70833ZM59.5833 5.41667C59.5833 3.92167 58.37 2.70833 56.875 2.70833H47.3958V8.125H59.5833V5.41667ZM59.5833 10.8333H2.70833V37.9167H59.5833V10.8333ZM59.5833 40.625H47.3958V46.0417H44.6875V40.625H32.5V46.0417H29.7917V40.625H17.6042V46.0417H14.8958V40.625H2.70833V43.3333C2.70833 44.8283 3.92167 46.0417 5.41667 46.0417H56.875C58.37 46.0417 59.5833 44.8283 59.5833 43.3333V40.625ZM27.9243 32.1818C27.6914 32.37 27.4056 32.5 27.0833 32.5C26.3345 32.5 25.7292 31.8947 25.7292 31.1458V17.6042C25.7292 16.8567 26.3345 16.25 27.0833 16.25C27.3718 16.25 27.625 16.361 27.8457 16.5154L38.369 23.1129C38.8917 23.2984 39.2708 23.7873 39.2708 24.375C39.2708 24.8151 39.0474 25.1889 38.7224 25.4353L27.9243 32.1818Z" fill="black"/>
</svg>
