<svg width="19" height="19" viewBox="0 0 19 19" fill="none" xmlns="http://www.w3.org/2000/svg">
<path d="M15.7685 7.59946C15.7093 7.46389 15.6131 7.34755 15.4909 7.26361C15.3687 7.17967 15.2253 7.1315 15.077 7.12456H11.4368L12.4462 3.37277C12.4783 3.25537 12.4829 3.13217 12.4594 3.01274C12.436 2.89331 12.3852 2.78087 12.3111 2.68416C12.237 2.58837 12.1419 2.51075 12.0331 2.45724C11.9243 2.40373 11.8046 2.37575 11.6832 2.37546H6.11955C5.94011 2.36934 5.76388 2.4239 5.61955 2.53026C5.47523 2.63662 5.37132 2.78851 5.32474 2.96119L3.19466 10.8763C3.16252 10.9937 3.15798 11.1169 3.18142 11.2364C3.20485 11.3558 3.25562 11.4682 3.32978 11.565C3.40464 11.6618 3.501 11.7401 3.61132 11.7936C3.72163 11.8472 3.8429 11.8746 3.96562 11.8736H7.04152L5.60292 17.2085C5.55579 17.3805 5.56836 17.5633 5.63861 17.7273C5.70886 17.8914 5.83266 18.027 5.98996 18.1121C6.14726 18.1973 6.32884 18.2271 6.50527 18.1967C6.6817 18.1663 6.84265 18.0775 6.96204 17.9446L15.6254 8.44639C15.7286 8.3339 15.7969 8.19416 15.8223 8.04393C15.8477 7.8937 15.829 7.73937 15.7685 7.59946ZM7.98734 14.4698L8.83778 11.3038C8.86993 11.1864 8.87446 11.0632 8.85103 10.9437C8.82759 10.8243 8.77682 10.7119 8.70266 10.6151C8.62862 10.5194 8.53353 10.4417 8.42469 10.3882C8.31585 10.3347 8.19615 10.3067 8.07477 10.3064H5.02272L6.7236 3.95849H10.642L9.63258 7.71028C9.60018 7.82984 9.59639 7.95531 9.62154 8.07659C9.64669 8.19788 9.70006 8.31159 9.77737 8.4086C9.85467 8.5056 9.95376 8.58319 10.0667 8.63511C10.1796 8.68704 10.3031 8.71186 10.4274 8.70759H13.2648L7.98734 14.4698Z" fill="#FFBF00"/>
<path d="M4.275 10.45L6.65 3.8H10.925L9.975 8.075L13.775 8.55L8.075 14.725V10.925L4.275 10.45Z" fill="#FFBF00" stroke="#FFBF00"/>
</svg>
