<svg width="19" height="19" viewBox="0 0 19 19" fill="none" xmlns="http://www.w3.org/2000/svg">
<path d="M9.5 8.70833C10.1263 8.70833 10.7386 8.52261 11.2593 8.17465C11.7801 7.8267 12.1859 7.33213 12.4256 6.7535C12.6653 6.17487 12.728 5.53816 12.6058 4.92388C12.4836 4.30961 12.182 3.74536 11.7392 3.3025C11.2963 2.85963 10.7321 2.55803 10.1178 2.43585C9.50352 2.31366 8.86681 2.37637 8.28817 2.61605C7.70954 2.85573 7.21497 3.26161 6.86702 3.78236C6.51906 4.30312 6.33334 4.91536 6.33334 5.54167C6.33334 6.38152 6.66697 7.18697 7.26083 7.78084C7.8547 8.37471 8.66015 8.70833 9.5 8.70833ZM9.5 3.95833C9.81316 3.95833 10.1193 4.0512 10.3797 4.22517C10.64 4.39915 10.843 4.64644 10.9628 4.93575C11.0827 5.22507 11.114 5.54342 11.0529 5.85056C10.9918 6.1577 10.841 6.43982 10.6196 6.66125C10.3982 6.88269 10.116 7.03349 9.8089 7.09458C9.50176 7.15567 9.1834 7.12432 8.89409 7.00448C8.60477 6.88464 8.35749 6.6817 8.18351 6.42132C8.00953 6.16094 7.91667 5.85482 7.91667 5.54167C7.91667 5.12174 8.08349 4.71901 8.38042 4.42208C8.67735 4.12515 9.08008 3.95833 9.5 3.95833ZM9.5 10.2917C8.03026 10.2917 6.62072 10.8755 5.58145 11.9148C4.54219 12.954 3.95834 14.3636 3.95834 15.8333C3.95834 16.0433 4.04174 16.2447 4.19021 16.3931C4.33868 16.5416 4.54004 16.625 4.75 16.625C4.95997 16.625 5.16133 16.5416 5.3098 16.3931C5.45826 16.2447 5.54167 16.0433 5.54167 15.8333C5.54167 14.7835 5.95871 13.7767 6.70104 13.0344C7.44337 12.292 8.45019 11.875 9.5 11.875C10.5498 11.875 11.5566 12.292 12.299 13.0344C13.0413 13.7767 13.4583 14.7835 13.4583 15.8333C13.4583 16.0433 13.5417 16.2447 13.6902 16.3931C13.8387 16.5416 14.04 16.625 14.25 16.625C14.46 16.625 14.6613 16.5416 14.8098 16.3931C14.9583 16.2447 15.0417 16.0433 15.0417 15.8333C15.0417 14.3636 14.4578 12.954 13.4186 11.9148C12.3793 10.8755 10.9697 10.2917 9.5 10.2917Z" fill="#343434"/>
</svg>
