<svg width="37" height="36" viewBox="0 0 37 36" fill="none" xmlns="http://www.w3.org/2000/svg">
<path d="M19.5 13.2245C27.5081 13.2245 34 17.6514 34 23.1122C34 28.5731 27.5081 33 19.5 33C11.4919 33 5 28.5731 5 23.1122C5 17.6514 11.4919 13.2245 19.5 13.2245Z" fill="#FFE28C"/>
<g filter="url(#filter0_d_87_262)">
<path d="M19.5 9.14952C27.5081 9.14952 34 13.5764 34 19.0373C34 24.4981 27.5081 28.925 19.5 28.925C11.4919 28.925 5 24.4981 5 19.0373C5 13.5764 11.4919 9.14952 19.5 9.14952Z" fill="#FFD559"/>
</g>
<g filter="url(#filter1_d_87_262)">
<path d="M19.5 5.0748C27.5081 5.0748 34 9.5017 34 14.9626C34 20.4234 27.5081 24.8503 19.5 24.8503C11.4919 24.8503 5 20.4234 5 14.9626C5 9.5017 11.4919 5.0748 19.5 5.0748Z" fill="#FFCB30"/>
<path d="M19.5 5.0748C27.5081 5.0748 34 9.5017 34 14.9626C34 20.4234 27.5081 24.8503 19.5 24.8503C11.4919 24.8503 5 20.4234 5 14.9626C5 9.5017 11.4919 5.0748 19.5 5.0748Z" fill="#FFCB30"/>
<path d="M19.5 5.0748C27.5081 5.0748 34 9.5017 34 14.9626C34 20.4234 27.5081 24.8503 19.5 24.8503C11.4919 24.8503 5 20.4234 5 14.9626C5 9.5017 11.4919 5.0748 19.5 5.0748Z" fill="#FFCB30"/>
</g>
<g filter="url(#filter2_d_87_262)">
<path d="M19.5 1.00033C27.5081 1.00033 34 5.42724 34 10.8881C34 16.349 27.5081 20.7759 19.5 20.7759C11.4919 20.7759 5 16.349 5 10.8881C5 5.42724 11.4919 1.00033 19.5 1.00033Z" fill="#FFBF00"/>
</g>
<defs>
<filter id="filter0_d_87_262" x="0" y="8.14941" width="37" height="27.7756" filterUnits="userSpaceOnUse" color-interpolation-filters="sRGB">
<feFlood flood-opacity="0" result="BackgroundImageFix"/>
<feColorMatrix in="SourceAlpha" type="matrix" values="0 0 0 0 0 0 0 0 0 0 0 0 0 0 0 0 0 0 127 0" result="hardAlpha"/>
<feOffset dx="-1" dy="3"/>
<feGaussianBlur stdDeviation="2"/>
<feColorMatrix type="matrix" values="0 0 0 0 0 0 0 0 0 0 0 0 0 0 0 0 0 0 0.13 0"/>
<feBlend mode="normal" in2="BackgroundImageFix" result="effect1_dropShadow_87_262"/>
<feBlend mode="normal" in="SourceGraphic" in2="effect1_dropShadow_87_262" result="shape"/>
</filter>
<filter id="filter1_d_87_262" x="0" y="4.07471" width="37" height="27.7756" filterUnits="userSpaceOnUse" color-interpolation-filters="sRGB">
<feFlood flood-opacity="0" result="BackgroundImageFix"/>
<feColorMatrix in="SourceAlpha" type="matrix" values="0 0 0 0 0 0 0 0 0 0 0 0 0 0 0 0 0 0 127 0" result="hardAlpha"/>
<feOffset dx="-1" dy="3"/>
<feGaussianBlur stdDeviation="2"/>
<feColorMatrix type="matrix" values="0 0 0 0 0 0 0 0 0 0 0 0 0 0 0 0 0 0 0.13 0"/>
<feBlend mode="normal" in2="BackgroundImageFix" result="effect1_dropShadow_87_262"/>
<feBlend mode="normal" in="SourceGraphic" in2="effect1_dropShadow_87_262" result="shape"/>
</filter>
<filter id="filter2_d_87_262" x="0" y="0.000244141" width="37" height="27.7756" filterUnits="userSpaceOnUse" color-interpolation-filters="sRGB">
<feFlood flood-opacity="0" result="BackgroundImageFix"/>
<feColorMatrix in="SourceAlpha" type="matrix" values="0 0 0 0 0 0 0 0 0 0 0 0 0 0 0 0 0 0 127 0" result="hardAlpha"/>
<feOffset dx="-1" dy="3"/>
<feGaussianBlur stdDeviation="2"/>
<feColorMatrix type="matrix" values="0 0 0 0 0 0 0 0 0 0 0 0 0 0 0 0 0 0 0.13 0"/>
<feBlend mode="normal" in2="BackgroundImageFix" result="effect1_dropShadow_87_262"/>
<feBlend mode="normal" in="SourceGraphic" in2="effect1_dropShadow_87_262" result="shape"/>
</filter>
</defs>
</svg>
