<svg width="25" height="27" viewBox="0 0 25 27" fill="none" xmlns="http://www.w3.org/2000/svg">
<g filter="url(#filter0_d_2_17)">
<path d="M13.5 8.25849C18.1944 8.25849 22 10.8869 22 14.1292C22 17.3716 18.1944 20 13.5 20C8.80558 20 5 17.3716 5 14.1292C5 10.8869 8.80558 8.25849 13.5 8.25849Z" fill="#FFE28C"/>
</g>
<g filter="url(#filter1_d_2_17)">
<path d="M13.5 5.8391C18.1944 5.8391 22 8.46753 22 11.7099C22 14.9522 18.1944 17.5806 13.5 17.5806C8.80558 17.5806 5 14.9522 5 11.7099C5 8.46753 8.80558 5.8391 13.5 5.8391Z" fill="#FFD559"/>
</g>
<g filter="url(#filter2_d_2_17)">
<path d="M13.5 3.41982C18.1944 3.41982 22 6.04826 22 9.2906C22 12.5329 18.1944 15.1614 13.5 15.1614C8.80558 15.1614 5 12.5329 5 9.2906C5 6.04826 8.80558 3.41982 13.5 3.41982Z" fill="#FFCB30"/>
<path d="M13.5 3.41982C18.1944 3.41982 22 6.04826 22 9.2906C22 12.5329 18.1944 15.1614 13.5 15.1614C8.80558 15.1614 5 12.5329 5 9.2906C5 6.04826 8.80558 3.41982 13.5 3.41982Z" fill="#FFCB30"/>
<path d="M13.5 3.41982C18.1944 3.41982 22 6.04826 22 9.2906C22 12.5329 18.1944 15.1614 13.5 15.1614C8.80558 15.1614 5 12.5329 5 9.2906C5 6.04826 8.80558 3.41982 13.5 3.41982Z" fill="#FFCB30"/>
</g>
<g filter="url(#filter3_d_2_17)">
<path d="M13.5 1C18.1944 1 22 3.62842 22 6.87075C22 10.1131 18.1944 12.7415 13.5 12.7415C8.80558 12.7415 5 10.1131 5 6.87075C5 3.62842 8.80558 1 13.5 1Z" fill="#FFBF00"/>
</g>
<defs>
<filter id="filter0_d_2_17" x="0.247287" y="7.30794" width="24.6043" height="19.3459" filterUnits="userSpaceOnUse" color-interpolation-filters="sRGB">
<feFlood flood-opacity="0" result="BackgroundImageFix"/>
<feColorMatrix in="SourceAlpha" type="matrix" values="0 0 0 0 0 0 0 0 0 0 0 0 0 0 0 0 0 0 127 0" result="hardAlpha"/>
<feOffset dx="-0.950543" dy="2.85163"/>
<feGaussianBlur stdDeviation="1.90109"/>
<feColorMatrix type="matrix" values="0 0 0 0 0 0 0 0 0 0 0 0 0 0 0 0 0 0 0.13 0"/>
<feBlend mode="normal" in2="BackgroundImageFix" result="effect1_dropShadow_2_17"/>
<feBlend mode="normal" in="SourceGraphic" in2="effect1_dropShadow_2_17" result="shape"/>
</filter>
<filter id="filter1_d_2_17" x="0.247287" y="4.88856" width="24.6043" height="19.3459" filterUnits="userSpaceOnUse" color-interpolation-filters="sRGB">
<feFlood flood-opacity="0" result="BackgroundImageFix"/>
<feColorMatrix in="SourceAlpha" type="matrix" values="0 0 0 0 0 0 0 0 0 0 0 0 0 0 0 0 0 0 127 0" result="hardAlpha"/>
<feOffset dx="-0.950543" dy="2.85163"/>
<feGaussianBlur stdDeviation="1.90109"/>
<feColorMatrix type="matrix" values="0 0 0 0 0 0 0 0 0 0 0 0 0 0 0 0 0 0 0.13 0"/>
<feBlend mode="normal" in2="BackgroundImageFix" result="effect1_dropShadow_2_17"/>
<feBlend mode="normal" in="SourceGraphic" in2="effect1_dropShadow_2_17" result="shape"/>
</filter>
<filter id="filter2_d_2_17" x="0.247287" y="2.46928" width="24.6043" height="19.3459" filterUnits="userSpaceOnUse" color-interpolation-filters="sRGB">
<feFlood flood-opacity="0" result="BackgroundImageFix"/>
<feColorMatrix in="SourceAlpha" type="matrix" values="0 0 0 0 0 0 0 0 0 0 0 0 0 0 0 0 0 0 127 0" result="hardAlpha"/>
<feOffset dx="-0.950543" dy="2.85163"/>
<feGaussianBlur stdDeviation="1.90109"/>
<feColorMatrix type="matrix" values="0 0 0 0 0 0 0 0 0 0 0 0 0 0 0 0 0 0 0.13 0"/>
<feBlend mode="normal" in2="BackgroundImageFix" result="effect1_dropShadow_2_17"/>
<feBlend mode="normal" in="SourceGraphic" in2="effect1_dropShadow_2_17" result="shape"/>
</filter>
<filter id="filter3_d_2_17" x="0.247287" y="0.0494576" width="24.6043" height="19.3458" filterUnits="userSpaceOnUse" color-interpolation-filters="sRGB">
<feFlood flood-opacity="0" result="BackgroundImageFix"/>
<feColorMatrix in="SourceAlpha" type="matrix" values="0 0 0 0 0 0 0 0 0 0 0 0 0 0 0 0 0 0 127 0" result="hardAlpha"/>
<feOffset dx="-0.950543" dy="2.85163"/>
<feGaussianBlur stdDeviation="1.90109"/>
<feColorMatrix type="matrix" values="0 0 0 0 0 0 0 0 0 0 0 0 0 0 0 0 0 0 0.13 0"/>
<feBlend mode="normal" in2="BackgroundImageFix" result="effect1_dropShadow_2_17"/>
<feBlend mode="normal" in="SourceGraphic" in2="effect1_dropShadow_2_17" result="shape"/>
</filter>
</defs>
</svg>
