<svg width="104" height="104" viewBox="0 0 104 104" fill="none" xmlns="http://www.w3.org/2000/svg">
<path fill-rule="evenodd" clip-rule="evenodd" d="M79.3883 51.6256L77.4799 52.8424C74.0377 55.0331 69.8742 55.788 65.882 54.9452C61.8897 54.1025 58.3866 51.7291 56.1235 48.334L51.9999 42.146L47.8763 48.334C45.6133 51.7291 42.1101 54.1025 38.1179 54.9452C34.1257 55.788 29.9622 55.0331 26.5199 52.8424L24.6115 51.6256L28.8183 67.6H75.1815L79.3883 51.6256ZM19.0007 35.724C15.0071 33.1864 9.97354 36.8628 11.1799 41.4388L19.7807 74.1208C20.0723 75.2312 20.7232 76.2139 21.6319 76.9156C22.5405 77.6173 23.6559 77.9986 24.8039 78H79.1855C80.3338 78.0001 81.4498 77.6201 82.3594 76.9193C83.2691 76.2185 83.9211 75.2363 84.2139 74.126L92.8148 41.4388C94.0212 36.8628 88.9875 33.1864 84.9939 35.724L71.8899 44.0648C70.7425 44.7951 69.3547 45.0467 68.024 44.7658C66.6932 44.4848 65.5255 43.6937 64.7711 42.562L56.3211 29.8896C55.8463 29.1774 55.2029 28.5935 54.4482 28.1896C53.6935 27.7858 52.8507 27.5745 51.9947 27.5745C51.1388 27.5745 50.296 27.7858 49.5413 28.1896C48.7866 28.5935 48.1432 29.1774 47.6683 29.8896L39.2235 42.562C38.47 43.6946 37.3027 44.4868 35.9719 44.7687C34.6411 45.0506 33.2528 44.7998 32.1047 44.07L19.0007 35.724Z" fill="#FFBF00"/>
<path d="M57.2 18.2C57.2 19.5791 56.6521 20.9018 55.6769 21.877C54.7017 22.8521 53.3791 23.4 52 23.4C50.6208 23.4 49.2982 22.8521 48.323 21.877C47.3478 20.9018 46.8 19.5791 46.8 18.2C46.8 16.8209 47.3478 15.4982 48.323 14.523C49.2982 13.5479 50.6208 13 52 13C53.3791 13 54.7017 13.5479 55.6769 14.523C56.6521 15.4982 57.2 16.8209 57.2 18.2V18.2ZM98.8 28.6C98.8 29.9791 98.2521 31.3018 97.2769 32.277C96.3017 33.2521 94.9791 33.8 93.6 33.8C92.2208 33.8 90.8982 33.2521 89.923 32.277C88.9478 31.3018 88.4 29.9791 88.4 28.6C88.4 27.2209 88.9478 25.8982 89.923 24.923C90.8982 23.9479 92.2208 23.4 93.6 23.4C94.9791 23.4 96.3017 23.9479 97.2769 24.923C98.2521 25.8982 98.8 27.2209 98.8 28.6ZM15.6 28.6C15.6 29.9791 15.0521 31.3018 14.0769 32.277C13.1017 33.2521 11.7791 33.8 10.4 33.8C9.02083 33.8 7.69819 33.2521 6.723 32.277C5.74781 31.3018 5.19995 29.9791 5.19995 28.6C5.19995 27.2209 5.74781 25.8982 6.723 24.923C7.69819 23.9479 9.02083 23.4 10.4 23.4C11.7791 23.4 13.1017 23.9479 14.0769 24.923C15.0521 25.8982 15.6 27.2209 15.6 28.6Z" fill="#4B0082"/>
<path fill-rule="evenodd" clip-rule="evenodd" d="M23.3999 84.5C23.3999 83.1209 23.9478 81.7982 24.9229 80.823C25.8981 79.8478 27.2208 79.3 28.5999 79.3H76.7051C78.0842 79.3 79.4069 79.8478 80.3821 80.823C81.3572 81.7982 81.9051 83.1209 81.9051 84.5C81.9051 85.8791 81.3572 87.2018 80.3821 88.177C79.4069 89.1521 78.0842 89.7 76.7051 89.7H28.5999C27.2208 89.7 25.8981 89.1521 24.9229 88.177C23.9478 87.2018 23.3999 85.8791 23.3999 84.5Z" fill="#4B0082"/>
</svg>
